<svg width="22.000000" height="17.000000" viewBox="0 0 22 17" fill="none" xmlns="http://www.w3.org/2000/svg" xmlns:xlink="http://www.w3.org/1999/xlink">
  <defs/>
  <path id="“" d="M6.62 8.7Q5.72 8.11 4.51 7.99Q4.87 6 5.86 4.4Q6.41 3.49 7.16 2.71Q7.5 2.37 7.65 1.95Q7.79 1.6 7.79 1.19Q7.79 0.89 7.7 0.62Q7.55 0.17 7.14 -0.2Q6.84 -0.49 6.48 -0.64Q6.09 -0.8 5.64 -0.8Q5.28 -0.8 4.95 -0.7Q4.33 -0.52 3.8 0Q1.91 2.07 0.9 4.51Q-0.28 7.33 -0.28 10.64Q-0.28 13.83 0.95 15.35Q1.49 16.01 2.19 16.38Q3.1 16.87 4.27 16.87Q5.4 16.87 6.28 16.41Q6.84 16.12 7.3 15.64Q7.62 15.31 7.86 14.92Q8.51 13.86 8.51 12.4Q8.51 11.04 7.91 10.04Q7.69 9.67 7.4 9.35Q7.04 8.97 6.62 8.7ZM19.9 8.7Q19 8.11 17.79 7.99Q18.15 6 19.14 4.4Q19.69 3.49 20.44 2.71Q20.78 2.37 20.94 1.95Q21.07 1.6 21.07 1.19Q21.07 0.89 20.98 0.62Q20.83 0.17 20.42 -0.2Q20.12 -0.49 19.76 -0.64Q19.38 -0.8 18.92 -0.8Q18.56 -0.8 18.23 -0.7Q17.61 -0.52 17.08 0Q15.19 2.07 14.18 4.51Q13 7.33 13 10.64Q13 13.83 14.23 15.35Q14.77 16.01 15.47 16.38Q16.38 16.87 17.55 16.87Q18.68 16.87 19.56 16.41Q20.12 16.12 20.58 15.64Q20.9 15.31 21.14 14.92Q21.79 13.86 21.79 12.4Q21.79 11.04 21.19 10.04Q20.98 9.67 20.68 9.35Q20.32 8.97 19.9 8.7Z" fill="#DDDDDD" fill-opacity="1.000000" fill-rule="evenodd"/>
</svg>