<svg width="41.000000" height="34.000000" viewBox="0 0 41 34" fill="none" xmlns="http://www.w3.org/2000/svg" xmlns:xlink="http://www.w3.org/1999/xlink">
  <defs>
    <clipPath id="clip0_381">
      <rect id="stopwatch 1" width="34.000000" height="34.000000" fill="white" fill-opacity="0"/>
    </clipPath>
    <linearGradient x1="-0.000000" y1="15.942242" x2="33.180725" y2="17.000080" id="paint_linear_0_385_0" gradientUnits="userSpaceOnUse">
      <stop stop-color="#FF7D3D"/>
      <stop offset="1.000000" stop-color="#F99462" stop-opacity="0.709804"/>
    </linearGradient>
    <linearGradient x1="18.722046" y1="18.334198" x2="26.558910" y2="18.601881" id="paint_linear_0_386_0" gradientUnits="userSpaceOnUse">
      <stop stop-color="#FF7D3D"/>
      <stop offset="1.000000" stop-color="#F99462" stop-opacity="0.709804"/>
    </linearGradient>
    <linearGradient x1="20.572021" y1="10.785319" x2="21.868143" y2="10.829591" id="paint_linear_0_387_0" gradientUnits="userSpaceOnUse">
      <stop stop-color="#FF7D3D"/>
      <stop offset="1.000000" stop-color="#F99462" stop-opacity="0.709804"/>
    </linearGradient>
    <linearGradient x1="20.572021" y1="29.332561" x2="21.868143" y2="29.376833" id="paint_linear_0_388_0" gradientUnits="userSpaceOnUse">
      <stop stop-color="#FF7D3D"/>
      <stop offset="1.000000" stop-color="#F99462" stop-opacity="0.709804"/>
    </linearGradient>
    <linearGradient x1="14.014342" y1="13.501262" x2="15.310467" y2="13.545532" id="paint_linear_0_389_0" gradientUnits="userSpaceOnUse">
      <stop stop-color="#FF7D3D"/>
      <stop offset="1.000000" stop-color="#F99462" stop-opacity="0.709804"/>
    </linearGradient>
    <linearGradient x1="27.129639" y1="26.616497" x2="28.425760" y2="26.660769" id="paint_linear_0_390_0" gradientUnits="userSpaceOnUse">
      <stop stop-color="#FF7D3D"/>
      <stop offset="1.000000" stop-color="#F99462" stop-opacity="0.709804"/>
    </linearGradient>
    <linearGradient x1="14.014342" y1="26.616497" x2="15.310467" y2="26.660769" id="paint_linear_0_391_0" gradientUnits="userSpaceOnUse">
      <stop stop-color="#FF7D3D"/>
      <stop offset="1.000000" stop-color="#F99462" stop-opacity="0.709804"/>
    </linearGradient>
    <linearGradient x1="11.298401" y1="20.058880" x2="12.594522" y2="20.103151" id="paint_linear_0_392_0" gradientUnits="userSpaceOnUse">
      <stop stop-color="#FF7D3D"/>
      <stop offset="1.000000" stop-color="#F99462" stop-opacity="0.709804"/>
    </linearGradient>
    <linearGradient x1="29.845520" y1="20.058880" x2="31.141638" y2="20.103151" id="paint_linear_0_393_0" gradientUnits="userSpaceOnUse">
      <stop stop-color="#FF7D3D"/>
      <stop offset="1.000000" stop-color="#F99462" stop-opacity="0.709804"/>
    </linearGradient>
    <linearGradient x1="-0.000000" y1="24.323528" x2="1.296122" y2="24.367800" id="paint_linear_0_394_0" gradientUnits="userSpaceOnUse">
      <stop stop-color="#FF7D3D"/>
      <stop offset="1.000000" stop-color="#F99462" stop-opacity="0.709804"/>
    </linearGradient>
    <linearGradient x1="23.204529" y1="14.077307" x2="30.606035" y2="14.329645" id="paint_linear_0_395_0" gradientUnits="userSpaceOnUse">
      <stop stop-color="#FF7D3D"/>
      <stop offset="1.000000" stop-color="#F99462" stop-opacity="0.709804"/>
    </linearGradient>
    <linearGradient x1="14.000000" y1="12.599993" x2="39.408348" y2="13.500002" id="paint_linear_0_396_0" gradientUnits="userSpaceOnUse">
      <stop stop-color="#F99462"/>
      <stop offset="1.000000" stop-color="#F99462" stop-opacity="0.650980"/>
    </linearGradient>
  </defs>
  <rect id="stopwatch 1" width="34.000000" height="34.000000" fill="#FFFFFF" fill-opacity="0"/>
  <g clip-path="url(#clip0_381)">
    <path id="XMLID_292_" d="M31.75 12.88L32.75 11.88C33.03 11.59 33.19 11.21 33.19 10.8C33.19 10.4 33.03 10.01 32.75 9.72L31.6 8.58C31.32 8.3 30.93 8.14 30.53 8.14C30.12 8.14 29.74 8.3 29.45 8.58L28.45 9.58C27.14 8.67 25.65 8.01 24.04 7.65L24.04 6.17L24.65 6.17C25.47 6.17 26.14 5.51 26.14 4.69L26.14 2.62C26.14 1.8 25.47 1.13 24.65 1.13L17.8 1.13C16.97 1.13 16.31 1.8 16.31 2.62L16.31 4.69C16.31 5.51 16.97 6.17 17.8 6.17L18.4 6.17L18.4 7.65C16.8 8.01 15.32 8.68 14.01 9.58L13.01 8.58C12.72 8.3 12.34 8.14 11.94 8.14C11.53 8.14 11.15 8.3 10.86 8.58L9.72 9.72C9.12 10.32 9.12 11.29 9.72 11.88L9.89 12.06L5.19 12.06C4.82 12.06 4.52 12.35 4.52 12.72C4.52 13.09 4.82 13.39 5.19 13.39L10.38 13.39C9.88 14.18 9.48 15.04 9.16 15.94L0.66 15.94C0.29 15.94 0 16.23 0 16.6C0 16.97 0.29 17.27 0.66 17.27L8.78 17.27C8.6 18.09 8.49 18.94 8.47 19.82L4.24 19.82C3.88 19.82 3.58 20.12 3.58 20.48C3.58 20.85 3.88 21.15 4.24 21.15L8.51 21.15C8.58 22.02 8.74 22.88 8.98 23.7L3.32 23.7C2.95 23.7 2.65 24 2.65 24.36C2.65 24.73 2.95 25.03 3.32 25.03L9.46 25.03C11.39 29.63 15.94 32.86 21.23 32.86C28.27 32.86 34 27.14 34 20.1C34 17.42 33.16 14.93 31.75 12.88ZM30.39 9.52C30.44 9.48 30.49 9.47 30.53 9.47C30.56 9.47 30.62 9.48 30.67 9.52L31.81 10.66C31.85 10.71 31.86 10.77 31.86 10.8C31.86 10.84 31.85 10.89 31.81 10.94L30.93 11.81C30.5 11.31 30.02 10.83 29.52 10.4L30.39 9.52ZM17.64 4.69L17.64 2.62C17.64 2.53 17.71 2.46 17.8 2.46L24.65 2.46C24.74 2.46 24.81 2.53 24.81 2.62L24.81 4.69C24.81 4.77 24.74 4.85 24.65 4.85L23.38 4.85L19.07 4.85L17.8 4.85C17.71 4.85 17.64 4.77 17.64 4.69ZM19.73 6.17L22.71 6.17L22.71 7.42C22.23 7.36 21.73 7.33 21.23 7.33C20.72 7.33 20.22 7.36 19.73 7.42L19.73 6.17ZM10.66 10.66L11.8 9.52C11.84 9.48 11.9 9.47 11.93 9.47C11.97 9.47 12.03 9.48 12.07 9.52L12.95 10.4C12.44 10.83 11.96 11.31 11.53 11.81L10.66 10.94C10.58 10.86 10.58 10.74 10.66 10.66ZM21.23 31.53C14.92 31.53 9.79 26.4 9.79 20.1C9.79 13.79 14.92 8.66 21.23 8.66C27.54 8.66 32.67 13.79 32.67 20.1C32.67 26.4 27.54 31.53 21.23 31.53Z" fill="url(#paint_linear_0_385_0)" fill-opacity="1.000000" fill-rule="nonzero"/>
    <path id="XMLID_899_" d="M25.61 14.78L22.47 17.92C22.11 17.71 21.68 17.58 21.23 17.58C19.84 17.58 18.72 18.71 18.72 20.1C18.72 21.48 19.84 22.61 21.23 22.61C22.62 22.61 23.74 21.48 23.74 20.1C23.74 19.65 23.62 19.22 23.41 18.85L26.55 15.72C26.81 15.46 26.81 15.04 26.55 14.78C26.29 14.52 25.87 14.52 25.61 14.78ZM21.23 21.28C20.58 21.28 20.05 20.75 20.05 20.1C20.05 19.44 20.58 18.91 21.23 18.91C21.88 18.91 22.42 19.44 22.42 20.1C22.42 20.75 21.88 21.28 21.23 21.28Z" fill="url(#paint_linear_0_386_0)" fill-opacity="1.000000" fill-rule="nonzero"/>
    <path id="XMLID_900_" d="M21.23 11.49C21.41 11.49 21.58 11.42 21.7 11.29C21.82 11.17 21.9 11 21.9 10.82C21.9 10.65 21.82 10.48 21.7 10.36C21.58 10.23 21.41 10.16 21.23 10.16C21.06 10.16 20.89 10.23 20.76 10.36C20.64 10.48 20.57 10.65 20.57 10.82C20.57 11 20.64 11.17 20.76 11.29C20.89 11.42 21.06 11.49 21.23 11.49Z" fill="url(#paint_linear_0_387_0)" fill-opacity="1.000000" fill-rule="nonzero"/>
    <path id="XMLID_901_" d="M21.23 28.71C21.06 28.71 20.89 28.78 20.76 28.9C20.64 29.03 20.57 29.2 20.57 29.37C20.57 29.55 20.64 29.72 20.76 29.84C20.89 29.97 21.06 30.04 21.23 30.04C21.41 30.04 21.58 29.97 21.7 29.84C21.82 29.72 21.9 29.55 21.9 29.37C21.9 29.2 21.82 29.03 21.7 28.9C21.58 28.78 21.41 28.71 21.23 28.71Z" fill="url(#paint_linear_0_388_0)" fill-opacity="1.000000" fill-rule="nonzero"/>
    <path id="XMLID_902_" d="M14.67 12.88C14.5 12.88 14.33 12.95 14.2 13.07C14.08 13.19 14.01 13.37 14.01 13.54C14.01 13.72 14.08 13.89 14.2 14.01C14.33 14.13 14.5 14.2 14.67 14.2C14.85 14.2 15.02 14.13 15.14 14.01C15.27 13.89 15.34 13.72 15.34 13.54C15.34 13.37 15.27 13.2 15.14 13.07C15.02 12.95 14.85 12.88 14.67 12.88Z" fill="url(#paint_linear_0_389_0)" fill-opacity="1.000000" fill-rule="nonzero"/>
    <path id="XMLID_903_" d="M27.79 25.99C27.61 25.99 27.44 26.06 27.32 26.19C27.2 26.31 27.12 26.48 27.12 26.66C27.12 26.83 27.2 27 27.32 27.13C27.44 27.25 27.61 27.32 27.79 27.32C27.96 27.32 28.13 27.25 28.26 27.13C28.38 27 28.45 26.83 28.45 26.66C28.45 26.48 28.38 26.31 28.26 26.19C28.13 26.06 27.96 25.99 27.79 25.99Z" fill="url(#paint_linear_0_390_0)" fill-opacity="1.000000" fill-rule="nonzero"/>
    <path id="XMLID_904_" d="M14.67 25.99C14.5 25.99 14.33 26.06 14.2 26.19C14.08 26.31 14.01 26.48 14.01 26.66C14.01 26.83 14.08 27 14.2 27.13C14.33 27.25 14.5 27.32 14.67 27.32C14.85 27.32 15.02 27.25 15.14 27.13C15.27 27 15.34 26.83 15.34 26.66C15.34 26.48 15.27 26.31 15.14 26.19C15.02 26.06 14.85 25.99 14.67 25.99Z" fill="url(#paint_linear_0_391_0)" fill-opacity="1.000000" fill-rule="nonzero"/>
    <path id="XMLID_905_" d="M11.96 19.43C11.78 19.43 11.61 19.51 11.49 19.63C11.36 19.75 11.29 19.92 11.29 20.1C11.29 20.27 11.36 20.44 11.49 20.57C11.61 20.69 11.78 20.76 11.96 20.76C12.13 20.76 12.3 20.69 12.43 20.57C12.55 20.44 12.62 20.27 12.62 20.1C12.62 19.92 12.55 19.75 12.43 19.63C12.3 19.51 12.13 19.43 11.96 19.43Z" fill="url(#paint_linear_0_392_0)" fill-opacity="1.000000" fill-rule="nonzero"/>
    <path id="XMLID_906_" d="M30.97 19.63C30.85 19.51 30.68 19.43 30.5 19.43C30.33 19.43 30.16 19.51 30.04 19.63C29.91 19.75 29.84 19.92 29.84 20.1C29.84 20.27 29.91 20.44 30.04 20.57C30.16 20.69 30.33 20.76 30.5 20.76C30.68 20.76 30.85 20.69 30.97 20.57C31.1 20.44 31.17 20.27 31.17 20.1C31.17 19.92 31.1 19.75 30.97 19.63Z" fill="url(#paint_linear_0_393_0)" fill-opacity="1.000000" fill-rule="nonzero"/>
    <path id="XMLID_912_" d="M0.66 23.7C0.48 23.7 0.31 23.77 0.19 23.89C0.07 24.02 0 24.19 0 24.36C0 24.54 0.07 24.71 0.19 24.83C0.31 24.96 0.48 25.03 0.66 25.03C0.83 25.03 1.01 24.96 1.13 24.83C1.25 24.71 1.32 24.54 1.32 24.36C1.32 24.19 1.25 24.02 1.13 23.89C1.01 23.77 0.83 23.7 0.66 23.7Z" fill="url(#paint_linear_0_394_0)" fill-opacity="1.000000" fill-rule="nonzero"/>
    <path id="XMLID_916_" d="M30.31 18.08C30.66 17.98 30.86 17.61 30.76 17.26C30.29 15.68 29.42 14.23 28.25 13.06C27.08 11.9 25.63 11.03 24.05 10.57C23.7 10.46 23.33 10.66 23.23 11.02C23.12 11.37 23.32 11.74 23.68 11.84C26.48 12.67 28.65 14.84 29.48 17.64C29.57 17.92 29.83 18.11 30.12 18.11C30.18 18.11 30.25 18.1 30.31 18.08Z" fill="url(#paint_linear_0_395_0)" fill-opacity="1.000000" fill-rule="nonzero"/>
  </g>
  <g opacity="0.350000">
    <ellipse id="Ellipse 20" cx="27.017853" cy="13.500000" rx="13.017858" ry="13.500000" fill="url(#paint_linear_0_396_0)" fill-opacity="1.000000"/>
  </g>
</svg>