<svg width="32.062500" height="32.679016" viewBox="0 0 32.0625 32.679" fill="none" xmlns="http://www.w3.org/2000/svg" xmlns:xlink="http://www.w3.org/1999/xlink">
  <defs>
    <linearGradient x1="-0.000000" y1="17.853209" x2="27.447292" y2="18.779829" id="paint_linear_0_405_0" gradientUnits="userSpaceOnUse">
      <stop stop-color="#47C2FF"/>
      <stop offset="1.000000" stop-color="#1CB4FF" stop-opacity="0.709804"/>
    </linearGradient>
    <linearGradient x1="7.062501" y1="11.733540" x2="31.460093" y2="12.571655" id="paint_linear_0_421_0" gradientUnits="userSpaceOnUse">
      <stop stop-color="#47C2FF"/>
      <stop offset="1.000000" stop-color="#63CBFE"/>
    </linearGradient>
  </defs>
  <path id="Vector" d="M28.12 27.58C28.12 26.78 27.82 26.01 27.28 25.42L26.59 26.03C26.86 26.34 27.05 26.71 27.14 27.11L23.9 27.11C23.82 27.11 23.75 27.13 23.68 27.17C23.61 27.21 23.55 27.26 23.51 27.32L21.78 29.89L20.62 29.89L20.62 28.5C20.62 27.64 20.97 26.82 21.58 26.21C22.2 25.6 23.03 25.26 23.9 25.26L24.84 25.26C25.3 25.26 25.75 25.39 26.13 25.65L26.65 24.88C26.25 24.61 25.79 24.44 25.31 24.37L25.31 22.94C25.31 22.82 25.26 22.7 25.17 22.62C25.08 22.53 24.96 22.48 24.84 22.48C24.34 22.48 23.87 22.29 23.51 21.94C23.16 21.59 22.96 21.12 22.96 20.63L22.96 18.77L24.37 18.77C24.49 18.77 24.61 18.73 24.7 18.64C24.79 18.55 24.84 18.43 24.84 18.31L24.84 15.07C24.84 14.95 24.79 14.83 24.7 14.74C24.61 14.65 24.49 14.61 24.37 14.61L23.54 14.61C23.35 14.61 23.15 14.63 22.96 14.68L22.96 14.14C22.96 14.04 22.93 13.93 22.86 13.85L21.33 11.96C21.53 11.62 21.6 11.23 21.53 10.84C21.46 10.46 21.25 10.11 20.95 9.87C20.64 9.62 20.26 9.5 19.86 9.51C19.47 9.52 19.09 9.67 18.8 9.94C18.51 10.2 18.33 10.56 18.29 10.95C18.24 11.33 18.34 11.72 18.56 12.05C18.78 12.37 19.12 12.6 19.5 12.7C19.88 12.8 20.28 12.76 20.64 12.59L22.03 14.3L22.03 14.89L19.97 14.21C19.83 14.16 19.69 14.14 19.55 14.14L15.68 14.14L13.45 11.58C13.64 11.45 13.79 11.28 13.9 11.08C14 10.88 14.06 10.66 14.06 10.44L14.06 10.26L14.74 9.92C14.8 9.89 14.85 9.85 14.89 9.8C14.93 9.75 14.96 9.69 14.98 9.63C15 9.56 15 9.5 14.99 9.43C14.98 9.37 14.95 9.31 14.92 9.25L14.15 8.11C14.25 8.09 14.35 8.03 14.42 7.95C14.49 7.87 14.53 7.76 14.53 7.66C14.53 6.92 14.23 6.21 13.7 5.69C13.17 5.17 12.46 4.88 11.71 4.88C10.83 4.88 10.01 5.13 9.41 5.79C9.14 6.08 8.94 6.42 8.82 6.79C8.7 7.16 8.65 7.55 8.69 7.93L8.79 8.92C8.83 9.35 9.04 9.75 9.37 10.03L9.37 18.77C9.37 19.1 9.46 19.42 9.62 19.7L8.9 19.7C8.74 19.7 8.58 19.73 8.43 19.78L8.43 13.68C8.43 13.31 8.28 12.96 8.02 12.7C7.76 12.44 7.4 12.29 7.03 12.29L1.4 12.29C1.03 12.29 0.67 12.44 0.41 12.7C0.14 12.96 0 13.31 0 13.68L0 16L0.93 16L0.93 15.07L7.5 15.07L7.5 19.7L0.93 19.7L0.93 16.92L0 16.92L0 20.7C-0.01 20.92 0.07 21.13 0.21 21.3C0.35 21.47 0.55 21.58 0.76 21.62L5.15 22.4L5.15 23.49C4.75 23.58 4.37 23.71 3.99 23.87L1.4 23.87C1.28 23.87 1.16 23.92 1.07 24.01C0.98 24.09 0.93 24.21 0.93 24.33L0.93 26.53C0.32 27.55 0 28.71 0 29.89C0 30.02 0.04 30.14 0.13 30.22C0.22 30.31 0.34 30.36 0.46 30.36L2.61 30.36C2.89 31.04 3.37 31.63 3.99 32.04C4.61 32.45 5.34 32.67 6.09 32.67C6.84 32.67 7.57 32.45 8.19 32.04C8.8 31.63 9.28 31.04 9.57 30.36L17.45 30.36C17.77 30.36 18.1 30.29 18.39 30.16C18.69 30.03 18.96 29.84 19.18 29.6L19.68 29.05L19.68 30.36C19.68 30.48 19.73 30.6 19.82 30.69C19.91 30.77 20.03 30.82 20.15 30.82L21.12 30.82C21.54 31.53 22.17 32.08 22.94 32.39C23.7 32.7 24.54 32.76 25.34 32.55C26.14 32.34 26.84 31.87 27.35 31.22C27.85 30.58 28.12 29.78 28.12 28.97C28.12 28.61 28.07 28.26 27.97 27.92C28.02 27.88 28.05 27.82 28.08 27.76C28.11 27.71 28.12 27.64 28.12 27.58ZM19.21 11.13C19.21 10.99 19.26 10.86 19.33 10.74C19.41 10.63 19.52 10.54 19.65 10.49C19.78 10.44 19.92 10.42 20.05 10.45C20.19 10.48 20.32 10.54 20.41 10.64C20.51 10.74 20.58 10.86 20.61 10.99C20.63 11.13 20.62 11.27 20.57 11.4C20.51 11.52 20.42 11.63 20.31 11.71C20.19 11.78 20.06 11.83 19.92 11.83C19.73 11.83 19.55 11.75 19.42 11.62C19.29 11.49 19.21 11.31 19.21 11.13ZM12.51 27.58C12.05 27.58 11.61 27.4 11.28 27.08C10.96 26.76 10.78 26.32 10.78 25.87C10.78 25.41 10.89 24.99 11.2 24.64C11.47 24.33 11.85 24.12 12.26 24.06C12.76 23.99 13.22 23.75 13.55 23.37C13.88 23 14.06 22.52 14.06 22.02C14.06 21.96 14.05 21.9 14.02 21.84C14 21.78 13.96 21.73 13.92 21.69C14 21.53 14.05 21.35 14.06 21.16C14.07 20.98 14.04 20.8 13.98 20.63L15.25 20.63L13.19 25.91C13.14 26.04 13.12 26.18 13.12 26.31L13.12 27.58L12.51 27.58ZM14.06 26.65L16.4 26.65C16.5 26.65 16.6 26.68 16.68 26.74C16.76 26.8 16.82 26.89 16.85 26.98C16.88 27.08 16.88 27.18 16.84 27.27C16.81 27.36 16.74 27.44 16.66 27.5C16.54 27.55 16.42 27.58 16.29 27.58L14.06 27.58L14.06 26.65ZM17.7 26.57C17.6 26.35 17.46 26.17 17.27 26.02C17.08 25.88 16.86 25.78 16.63 25.74L18.57 21.12C18.74 20.71 18.81 20.27 18.76 19.82C18.72 19.38 18.57 18.96 18.32 18.59C18.07 18.22 17.73 17.91 17.33 17.7C16.94 17.49 16.49 17.38 16.04 17.39L14.06 17.39L14.06 16.65L14.19 16.79C14.24 16.83 14.29 16.86 14.35 16.89C14.4 16.91 14.46 16.92 14.53 16.92L19.29 16.92C19.22 17.13 19.2 17.36 19.23 17.58C19.26 17.8 19.34 18.01 19.47 18.19C19.6 18.37 19.77 18.52 19.97 18.62C20.17 18.72 20.4 18.78 20.62 18.77L20.62 18.77C20.32 19.18 20.15 19.66 20.15 20.16L20.15 23.76C20.15 24 20.05 24.24 19.88 24.41L17.7 26.57ZM20.62 17.85C20.53 17.85 20.44 17.82 20.36 17.77C20.28 17.72 20.22 17.65 20.19 17.56C20.15 17.48 20.14 17.38 20.16 17.29C20.18 17.2 20.22 17.12 20.29 17.06C20.35 16.99 20.44 16.95 20.53 16.93C20.62 16.91 20.71 16.92 20.8 16.96C20.89 16.99 20.96 17.05 21.01 17.13C21.06 17.2 21.09 17.29 21.09 17.39C21.09 17.51 21.04 17.63 20.95 17.71C20.86 17.8 20.74 17.85 20.62 17.85ZM23.9 15.53L23.9 17.85L22.96 17.85L22.96 15.68C23.14 15.58 23.34 15.53 23.54 15.53L23.9 15.53ZM22.03 17.39C22.03 17.16 21.97 16.94 21.87 16.75C21.77 16.55 21.62 16.38 21.43 16.25C21.25 16.12 21.04 16.04 20.81 16.01C20.59 15.98 20.36 16 20.15 16.07L20.15 15.25L22.03 15.87L22.03 17.39ZM15.46 15.07L19.21 15.07L19.21 16L14.72 16L12.05 13.35L11.38 14.01L13.12 15.72L13.12 17.39L10.31 17.39L10.31 11.83L12.44 11.83L15.11 14.91C15.15 14.96 15.21 15 15.27 15.03C15.33 15.05 15.4 15.07 15.46 15.07ZM10.1 6.41C10.53 5.94 11.1 5.8 11.71 5.8C12.13 5.8 12.53 5.94 12.86 6.19C13.19 6.44 13.43 6.79 13.53 7.19L11.71 7.19C11.59 7.19 11.47 7.24 11.38 7.33C11.29 7.41 11.25 7.53 11.25 7.66L11.25 8.76C11.24 8.95 11.17 9.13 11.03 9.27C10.9 9.41 10.72 9.5 10.52 9.51C10.33 9.51 10.14 9.45 9.99 9.32C9.84 9.2 9.75 9.02 9.73 8.83L9.63 7.84C9.6 7.58 9.63 7.32 9.71 7.08C9.79 6.83 9.92 6.6 10.1 6.41ZM10.48 10.44C10.93 10.43 11.37 10.26 11.68 9.94C12 9.63 12.18 9.2 12.18 8.76L12.18 8.12L13.12 8.12C13.12 8.21 13.15 8.3 13.2 8.38L13.84 9.33L13.38 9.56C13.3 9.6 13.24 9.66 13.19 9.73C13.14 9.8 13.12 9.89 13.12 9.97L13.12 10.44C13.12 10.56 13.07 10.68 12.98 10.76C12.89 10.85 12.78 10.9 12.65 10.9L10.31 10.9L10.31 10.43C10.37 10.43 10.42 10.44 10.48 10.44ZM10.31 18.77L10.31 18.31L16.04 18.31C16.34 18.31 16.63 18.38 16.89 18.52C17.15 18.66 17.37 18.86 17.54 19.1C17.7 19.34 17.8 19.62 17.83 19.91C17.86 20.2 17.82 20.5 17.7 20.77L15.62 25.72L14.27 25.72L16.37 20.33C16.4 20.26 16.41 20.19 16.4 20.11C16.39 20.04 16.36 19.96 16.32 19.9C16.28 19.84 16.22 19.79 16.15 19.75C16.08 19.72 16.01 19.7 15.93 19.7L11.25 19.7C11 19.7 10.76 19.6 10.58 19.43C10.41 19.26 10.31 19.02 10.31 18.77ZM8.9 20.63L12.65 20.63C12.78 20.63 12.89 20.68 12.98 20.76C13.07 20.85 13.12 20.97 13.12 21.09C13.12 21.21 13.07 21.33 12.98 21.42C12.89 21.51 12.78 21.55 12.65 21.55L8.9 21.55C8.78 21.55 8.66 21.51 8.57 21.42C8.48 21.33 8.43 21.21 8.43 21.09C8.43 20.97 8.48 20.85 8.57 20.76C8.66 20.68 8.78 20.63 8.9 20.63ZM0.93 14.14L0.93 13.68C0.93 13.56 0.98 13.44 1.07 13.35C1.16 13.26 1.28 13.22 1.4 13.22L7.03 13.22C7.15 13.22 7.27 13.26 7.36 13.35C7.45 13.44 7.49 13.56 7.5 13.68L7.5 14.14L0.93 14.14ZM0.93 20.63L7.5 20.63L7.5 21.55L5.66 21.55L0.93 20.7L0.93 20.63ZM2.45 24.8C2.25 24.96 2.05 25.14 1.87 25.32L1.87 24.8L2.45 24.8ZM6.09 31.75C5.6 31.75 5.11 31.62 4.68 31.37C4.26 31.13 3.9 30.78 3.65 30.36L4.85 30.36C5.19 30.66 5.63 30.82 6.09 30.82C6.55 30.82 6.99 30.66 7.33 30.36L8.52 30.36C8.28 30.78 7.92 31.13 7.49 31.37C7.07 31.62 6.58 31.75 6.09 31.75ZM18.49 28.98C18.36 29.12 18.19 29.23 18.02 29.31C17.84 29.39 17.64 29.43 17.45 29.43L0.95 29.43C1.05 28.22 1.55 27.08 2.36 26.17C3.17 25.25 4.26 24.63 5.46 24.37C5.58 24.35 5.7 24.33 5.83 24.33L8.9 24.33L8.9 23.41L6.09 23.41L6.09 22.48L13.02 22.48C12.94 22.66 12.82 22.81 12.66 22.93C12.51 23.04 12.32 23.12 12.13 23.15C11.49 23.24 10.91 23.55 10.49 24.03C10.04 24.55 9.84 25.19 9.84 25.87C9.84 26.49 10.07 27.1 10.48 27.58L6.56 27.58L6.56 28.5L16.29 28.5C16.78 28.5 17.26 28.31 17.61 27.96L20.54 25.07C20.89 24.72 21.09 24.25 21.09 23.76L21.09 20.16C21.09 19.88 21.18 19.6 21.35 19.36C21.52 19.13 21.75 18.95 22.03 18.85L22.03 20.63C22.03 21.28 22.26 21.92 22.69 22.42C23.12 22.92 23.72 23.26 24.37 23.37L24.37 24.33C24.08 24.33 23.78 24.32 23.49 24.35C22.62 24.44 21.79 24.8 21.12 25.37C20.46 25.94 20 26.71 19.79 27.55L18.49 28.98ZM24.15 28.04L24.18 28.04L24.74 28.6C24.84 28.7 24.9 28.83 24.9 28.97C24.9 29.07 24.86 29.17 24.81 29.26C24.75 29.34 24.67 29.41 24.57 29.45C24.48 29.49 24.37 29.5 24.27 29.48C24.17 29.46 24.07 29.41 24 29.34L23.57 28.91L24.15 28.04ZM24.37 31.75C23.96 31.75 23.56 31.66 23.19 31.49C22.83 31.32 22.5 31.08 22.23 30.77C22.31 30.74 22.37 30.68 22.42 30.61L22.82 30.01C23.05 30.34 23.37 30.59 23.75 30.72C24.13 30.85 24.54 30.86 24.92 30.74C25.31 30.62 25.64 30.39 25.88 30.07C26.12 29.75 26.25 29.36 26.25 28.97C26.25 28.69 26.18 28.42 26.06 28.17C26.04 28.13 26.02 28.08 25.99 28.04L27.02 28.04C27.17 28.46 27.22 28.91 27.16 29.35C27.09 29.79 26.93 30.21 26.67 30.57C26.41 30.94 26.06 31.23 25.66 31.44C25.26 31.64 24.82 31.75 24.37 31.75Z" fill="url(#paint_linear_0_405_0)" fill-opacity="1.000000" fill-rule="nonzero"/>
  <g opacity="0.150000">
    <ellipse id="Ellipse 20" cx="19.562500" cy="12.571655" rx="12.500000" ry="12.571655" fill="url(#paint_linear_0_421_0)" fill-opacity="1.000000"/>
  </g>
</svg>