<svg width="33.318542" height="36.125000" viewBox="0 0 33.3185 36.125" fill="none" xmlns="http://www.w3.org/2000/svg" xmlns:xlink="http://www.w3.org/1999/xlink">
  <defs>
    <linearGradient x1="-0.000002" y1="22.124996" x2="25.617466" y2="22.999996" id="paint_linear_0_413_0" gradientUnits="userSpaceOnUse">
      <stop stop-color="#FF5050"/>
      <stop offset="1.000000" stop-color="#FF7070" stop-opacity="0.839216"/>
    </linearGradient>
    <linearGradient x1="9.125000" y1="11.666674" x2="32.735573" y2="12.500013" id="paint_linear_0_417_0" gradientUnits="userSpaceOnUse">
      <stop stop-color="#FF7070"/>
      <stop offset="1.000000" stop-color="#FF7070" stop-opacity="0.650980"/>
    </linearGradient>
  </defs>
  <path id="Vector" d="M25.81 32.18L22.75 32.18L22.75 23.39C23.02 23.34 23.27 23.22 23.49 23.06C23.72 22.9 23.9 22.69 24.03 22.44C24.16 22.2 24.24 21.93 24.26 21.66C24.28 21.38 24.24 21.1 24.14 20.85L22.75 17.23L22.75 10.31C22.75 10.25 22.73 10.19 22.71 10.14C22.69 10.09 22.66 10.04 22.62 10C22.58 9.96 22.53 9.93 22.47 9.9C22.42 9.88 22.37 9.87 22.31 9.87L3.93 9.87C3.88 9.87 3.82 9.88 3.77 9.9C3.71 9.93 3.66 9.96 3.62 10C3.58 10.04 3.55 10.09 3.53 10.14C3.51 10.19 3.49 10.25 3.5 10.31L3.5 17.23L2.1 20.85C2 21.1 1.96 21.38 1.98 21.66C2 21.93 2.08 22.2 2.21 22.44C2.34 22.69 2.53 22.9 2.75 23.06C2.97 23.22 3.22 23.34 3.5 23.39L3.5 32.18L0.43 32.18C0.38 32.18 0.32 32.19 0.27 32.22C0.21 32.24 0.16 32.27 0.12 32.31C0.08 32.35 0.05 32.4 0.03 32.45C0.01 32.51 -1.53e-5 32.56 0 32.62L0 35.68C-1.53e-5 35.74 0.01 35.8 0.03 35.85C0.05 35.9 0.08 35.95 0.12 35.99C0.16 36.03 0.21 36.06 0.27 36.09C0.32 36.11 0.38 36.12 0.43 36.12L25.81 36.12C25.87 36.12 25.92 36.11 25.97 36.09C26.03 36.06 26.08 36.03 26.12 35.99C26.16 35.95 26.19 35.9 26.21 35.85C26.23 35.8 26.25 35.74 26.25 35.68L26.25 32.62C26.25 32.56 26.23 32.51 26.21 32.45C26.19 32.4 26.16 32.35 26.12 32.31C26.08 32.27 26.03 32.24 25.97 32.22C25.92 32.19 25.87 32.18 25.81 32.18ZM21 32.18L21 22.85C21.23 23.1 21.54 23.28 21.87 23.37L21.87 32.18L21 32.18ZM17.5 32.62L17.5 35.25L15.75 35.25L15.75 32.18L16.62 32.18C16.74 32.18 16.85 32.14 16.93 32.05C17.01 31.97 17.06 31.86 17.06 31.75L17.06 30.43C17.06 30.32 17.01 30.21 16.93 30.12C16.85 30.04 16.74 30 16.62 30L14 30C13.88 30 13.77 30.04 13.69 30.12C13.6 30.21 13.56 30.32 13.56 30.43L13.56 31.75C13.56 31.86 13.6 31.97 13.69 32.05C13.77 32.14 13.88 32.18 14 32.18L14.87 32.18L14.87 35.25L13.12 35.25L13.12 32.62C13.12 32.56 13.11 32.51 13.09 32.45C13.06 32.4 13.03 32.35 12.99 32.31C12.95 32.27 12.9 32.24 12.85 32.22C12.8 32.19 12.74 32.18 12.68 32.18L11.81 32.18L11.81 30.87C11.81 30.81 11.8 30.76 11.77 30.7C11.75 30.65 11.72 30.6 11.68 30.56C11.64 30.52 11.59 30.49 11.54 30.47C11.48 30.44 11.43 30.43 11.37 30.43L10.5 30.43L10.5 23.39C10.92 23.3 11.3 23.07 11.58 22.74C11.6 22.77 11.63 22.81 11.66 22.84C11.84 23.03 12.05 23.18 12.29 23.28C12.53 23.38 12.78 23.43 13.04 23.43L13.2 23.43C13.46 23.43 13.71 23.38 13.95 23.28C14.19 23.18 14.4 23.03 14.58 22.84C14.61 22.81 14.64 22.77 14.66 22.74C14.73 22.82 14.8 22.89 14.87 22.95L14.87 24.31C14.29 24.31 13.73 24.54 13.32 24.95C12.91 25.36 12.68 25.92 12.68 26.5C12.68 26.55 12.69 26.61 12.72 26.66C12.74 26.72 12.77 26.76 12.81 26.8C12.85 26.85 12.9 26.88 12.95 26.9C13.01 26.92 13.06 26.93 13.12 26.93L17.5 26.93C17.55 26.93 17.61 26.92 17.66 26.9C17.72 26.88 17.76 26.85 17.8 26.8C17.85 26.76 17.88 26.72 17.9 26.66C17.92 26.61 17.93 26.55 17.93 26.5C17.93 25.92 17.7 25.36 17.29 24.95C16.88 24.54 16.33 24.31 15.75 24.31L15.75 23.39C15.87 23.42 16 23.43 16.13 23.43L16.27 23.43C16.54 23.43 16.82 23.37 17.07 23.26C17.32 23.14 17.54 22.97 17.72 22.76C17.73 22.75 17.74 22.73 17.75 22.72C17.93 22.94 18.16 23.12 18.41 23.25C18.67 23.37 18.95 23.43 19.24 23.43L19.32 23.43C19.6 23.43 19.87 23.37 20.12 23.26L20.12 30.43L19.25 30.43C19.19 30.43 19.13 30.44 19.08 30.47C19.02 30.49 18.98 30.52 18.94 30.56C18.9 30.6 18.86 30.65 18.84 30.7C18.82 30.76 18.81 30.81 18.81 30.87L18.81 32.18L17.93 32.18C17.87 32.18 17.82 32.19 17.77 32.22C17.71 32.24 17.66 32.27 17.62 32.31C17.58 32.35 17.55 32.4 17.53 32.45C17.51 32.51 17.5 32.56 17.5 32.62ZM14.43 31.31L14.43 30.87L16.18 30.87L16.18 31.31L14.43 31.31ZM5.93 21.26L6.89 17.75L8.67 17.75L8.02 21.7C7.98 21.94 7.85 22.16 7.67 22.31C7.48 22.47 7.25 22.56 7 22.56L6.92 22.56C6.76 22.56 6.6 22.52 6.46 22.45C6.32 22.38 6.2 22.28 6.1 22.15C6 22.03 5.94 21.88 5.91 21.73C5.88 21.57 5.88 21.41 5.93 21.26ZM6.12 23.26C6.37 23.37 6.64 23.43 6.92 23.43L7 23.43C7.29 23.43 7.57 23.37 7.83 23.25C8.08 23.12 8.31 22.94 8.49 22.72C8.5 22.73 8.51 22.75 8.52 22.76C8.8 23.09 9.19 23.32 9.62 23.4L9.62 25.62L6.12 25.62L6.12 23.26ZM9.97 22.56C9.82 22.56 9.68 22.53 9.54 22.46C9.4 22.4 9.28 22.31 9.19 22.19C9.09 22.08 9.02 21.95 8.98 21.8C8.94 21.66 8.93 21.51 8.96 21.36L9.55 17.75L11.35 17.75L11.13 21.59C11.12 21.85 11.01 22.1 10.81 22.28C10.62 22.46 10.37 22.56 10.11 22.56L9.97 22.56ZM13.94 22.24C13.85 22.34 13.73 22.42 13.6 22.47C13.48 22.53 13.34 22.56 13.2 22.56L13.04 22.56C12.9 22.56 12.77 22.53 12.64 22.47C12.51 22.42 12.39 22.34 12.3 22.24C12.2 22.14 12.13 22.02 12.08 21.89C12.03 21.75 12.01 21.62 12.02 21.48L12.22 17.75L14.02 17.75L14.22 21.47L14.22 21.48C14.23 21.62 14.21 21.75 14.16 21.89C14.11 22.02 14.04 22.14 13.94 22.24ZM15.11 21.59L14.89 17.75L16.69 17.75L17.28 21.36C17.31 21.51 17.3 21.66 17.26 21.8C17.22 21.95 17.15 22.08 17.05 22.19C16.96 22.31 16.84 22.4 16.7 22.46C16.56 22.53 16.42 22.56 16.27 22.56L16.13 22.56C15.87 22.56 15.62 22.46 15.43 22.28C15.23 22.1 15.12 21.85 15.11 21.59L15.11 21.59ZM15.75 25.18C16.02 25.18 16.28 25.27 16.5 25.42C16.72 25.58 16.89 25.8 16.98 26.06L13.63 26.06C13.72 25.8 13.89 25.58 14.11 25.42C14.33 25.27 14.6 25.18 14.87 25.18L15.75 25.18ZM20.14 22.15C20.04 22.28 19.92 22.38 19.78 22.45C19.64 22.52 19.48 22.56 19.32 22.56L19.24 22.56C18.99 22.56 18.76 22.47 18.57 22.31C18.39 22.16 18.26 21.94 18.22 21.7L17.57 17.75L19.35 17.75L20.31 21.26C20.31 21.26 20.31 21.26 20.31 21.26C20.36 21.41 20.36 21.57 20.33 21.73C20.3 21.88 20.24 22.03 20.14 22.15ZM19.68 31.31L20.12 31.31L20.12 32.18L19.68 32.18L19.68 31.31ZM23.32 21.16C23.38 21.32 23.4 21.48 23.38 21.65C23.36 21.82 23.3 21.97 23.21 22.11C23.11 22.25 22.99 22.36 22.84 22.44C22.69 22.52 22.53 22.56 22.36 22.56C22.14 22.56 21.92 22.48 21.74 22.35C21.56 22.21 21.43 22.02 21.37 21.8L20.26 17.75L22.01 17.75L23.32 21.16ZM4.37 10.75L21.87 10.75L21.87 16.87L4.37 16.87L4.37 10.75ZM3.03 22.11C2.94 21.97 2.88 21.82 2.86 21.65C2.84 21.48 2.86 21.32 2.92 21.16L4.23 17.75L5.98 17.75L4.87 21.8C4.81 22.02 4.68 22.21 4.5 22.35C4.32 22.48 4.1 22.56 3.88 22.56C3.71 22.56 3.55 22.52 3.4 22.44C3.25 22.36 3.12 22.25 3.03 22.11ZM4.37 23.37C4.7 23.28 5.01 23.1 5.25 22.85L5.25 32.18L4.37 32.18L4.37 23.37ZM7.87 35.25L0.87 35.25L0.87 33.06L7.87 33.06L7.87 35.25ZM8.31 32.18L6.12 32.18L6.12 26.5L9.62 26.5L9.62 35.25L8.75 35.25L8.75 32.62C8.75 32.56 8.73 32.51 8.71 32.45C8.69 32.4 8.66 32.35 8.62 32.31C8.58 32.27 8.53 32.24 8.47 32.22C8.42 32.19 8.36 32.18 8.31 32.18ZM10.5 31.31L10.93 31.31L10.93 32.62C10.93 32.68 10.94 32.73 10.97 32.79C10.99 32.84 11.02 32.89 11.06 32.93C11.1 32.97 11.15 33 11.2 33.02C11.26 33.05 11.31 33.06 11.37 33.06L12.25 33.06L12.25 35.25L10.5 35.25L10.5 31.31ZM25.37 35.25L18.37 35.25L18.37 33.06L25.37 33.06L25.37 35.25Z" fill="url(#paint_linear_0_413_0)" fill-opacity="1.000000" fill-rule="nonzero"/>
  <g opacity="0.150000">
    <ellipse id="Ellipse 20" cx="21.221771" cy="12.500000" rx="12.096774" ry="12.500000" fill="url(#paint_linear_0_417_0)" fill-opacity="1.000000"/>
  </g>
</svg>