<svg width="135.000000" height="40.000000" viewBox="0 0 135 40" fill="none" xmlns="http://www.w3.org/2000/svg" xmlns:xlink="http://www.w3.org/1999/xlink">
  <defs>
    <filter id="filter_13_13_dd" x="9.972992" y="7.140869" width="23.089752" height="25.720825" filterUnits="userSpaceOnUse" color-interpolation-filters="sRGB">
      <feFlood flood-opacity="0" result="BackgroundImageFix"/>
      <feBlend mode="normal" in="SourceGraphic" in2="BackgroundImageFix" result="shape"/>
      <feColorMatrix in="SourceAlpha" type="matrix" values="0 0 0 0 0 0 0 0 0 0 0 0 0 0 0 0 0 0 127 0" result="hardAlpha"/>
      <feOffset dx="0" dy="-0.15"/>
      <feGaussianBlur stdDeviation="0"/>
      <feComposite in2="hardAlpha" operator="arithmetic" k2="-1" k3="1"/>
      <feColorMatrix type="matrix" values="0 0 0 0 0 0 0 0 0 0 0 0 0 0 0 0 0 0 0.12 0"/>
      <feBlend mode="normal" in2="shape" result="effect_innerShadow_1"/>
      <feColorMatrix in="SourceAlpha" type="matrix" values="0 0 0 0 0 0 0 0 0 0 0 0 0 0 0 0 0 0 127 0" result="hardAlpha"/>
      <feOffset dx="0" dy="0.15"/>
      <feGaussianBlur stdDeviation="0"/>
      <feComposite in2="hardAlpha" operator="arithmetic" k2="-1" k3="1"/>
      <feColorMatrix type="matrix" values="0 0 0 0 1 0 0 0 0 1 0 0 0 0 1 0 0 0 0.25 0"/>
      <feBlend mode="normal" in2="effect_innerShadow_1" result="effect_innerShadow_2"/>
    </filter>
    <filter id="filter_13_11_dd" x="10.436005" y="20.000977" width="16.686005" height="12.860718" filterUnits="userSpaceOnUse" color-interpolation-filters="sRGB">
      <feFlood flood-opacity="0" result="BackgroundImageFix"/>
      <feBlend mode="normal" in="SourceGraphic" in2="BackgroundImageFix" result="shape"/>
      <feColorMatrix in="SourceAlpha" type="matrix" values="0 0 0 0 0 0 0 0 0 0 0 0 0 0 0 0 0 0 127 0" result="hardAlpha"/>
      <feOffset dx="0" dy="-0.15"/>
      <feGaussianBlur stdDeviation="0"/>
      <feComposite in2="hardAlpha" operator="arithmetic" k2="-1" k3="1"/>
      <feColorMatrix type="matrix" values="0 0 0 0 0 0 0 0 0 0 0 0 0 0 0 0 0 0 0.078 0"/>
      <feBlend mode="normal" in2="shape" result="effect_innerShadow_1"/>
    </filter>
    <clipPath id="clip0_545">
      <rect id="Store=Google Play, Style=Black" rx="4.500000" width="134.000000" height="39.000000" transform="translate(0.500000 0.500000)" fill="white" fill-opacity="0"/>
    </clipPath>
    <linearGradient x1="21.800789" y1="8.708854" x2="5.018793" y2="25.490860" id="paint_linear_13_9_0" gradientUnits="userSpaceOnUse">
      <stop stop-color="#00A0FF"/>
      <stop offset="0.006600" stop-color="#00A1FF"/>
      <stop offset="0.260100" stop-color="#00BEFF"/>
      <stop offset="0.512200" stop-color="#00D2FF"/>
      <stop offset="0.760400" stop-color="#00DFFF"/>
      <stop offset="1.000000" stop-color="#00E3FF"/>
    </linearGradient>
    <linearGradient x1="33.833488" y1="20.000854" x2="9.637589" y2="20.000854" id="paint_linear_13_10_0" gradientUnits="userSpaceOnUse">
      <stop stop-color="#FFE000"/>
      <stop offset="0.408700" stop-color="#FFBD00"/>
      <stop offset="0.775400" stop-color="#FFA500"/>
      <stop offset="1.000000" stop-color="#FF9C00"/>
    </linearGradient>
    <linearGradient x1="24.828102" y1="22.294880" x2="2.069613" y2="45.053375" id="paint_linear_13_11_0" gradientUnits="userSpaceOnUse">
      <stop stop-color="#FF3A44"/>
      <stop offset="1.000000" stop-color="#C31162"/>
    </linearGradient>
    <linearGradient x1="7.297404" y1="0.176745" x2="17.459707" y2="10.339044" id="paint_linear_13_12_0" gradientUnits="userSpaceOnUse">
      <stop stop-color="#32A071"/>
      <stop offset="0.068500" stop-color="#2DA771"/>
      <stop offset="0.476200" stop-color="#15CF74"/>
      <stop offset="0.800900" stop-color="#06E775"/>
      <stop offset="1.000000" stop-color="#00F076"/>
    </linearGradient>
  </defs>
  <rect id="Store=Google Play, Style=Black" rx="4.500000" width="134.000000" height="39.000000" transform="translate(0.500000 0.500000)" fill="#000000" fill-opacity="1.000000"/>
  <g clip-path="url(#clip0_545)">
    <path id="Google Play" d="M68.13 21.75C65.78 21.75 63.86 23.54 63.86 26C63.86 28.45 65.78 30.25 68.13 30.25C70.48 30.25 72.4 28.45 72.4 26C72.4 23.54 70.48 21.75 68.13 21.75ZM68.13 28.58C66.84 28.58 65.73 27.52 65.73 26C65.73 24.47 66.84 23.42 68.13 23.42C69.42 23.42 70.53 24.47 70.53 26C70.53 27.51 69.42 28.58 68.13 28.58ZM58.82 21.75C56.47 21.75 54.55 23.54 54.55 26C54.55 28.45 56.47 30.25 58.82 30.25C61.17 30.25 63.09 28.45 63.09 26C63.09 23.54 61.17 21.75 58.82 21.75ZM58.82 28.58C57.53 28.58 56.42 27.52 56.42 26C56.42 24.47 57.53 23.42 58.82 23.42C60.11 23.42 61.22 24.47 61.22 26C61.22 27.51 60.11 28.58 58.82 28.58ZM47.74 23.05L47.74 24.86L52.06 24.86C51.93 25.87 51.59 26.61 51.07 27.13C50.45 27.76 49.46 28.45 47.74 28.45C45.08 28.45 43 26.31 43 23.65C43 20.99 45.08 18.85 47.74 18.85C49.17 18.85 50.22 19.41 50.99 20.14L52.27 18.86C51.19 17.83 49.75 17.04 47.74 17.04C44.1 17.04 41.04 20.01 41.04 23.65C41.04 27.29 44.1 30.25 47.74 30.25C49.7 30.25 51.19 29.61 52.35 28.4C53.54 27.21 53.91 25.53 53.91 24.18C53.91 23.76 53.88 23.37 53.81 23.05L47.74 23.05L47.74 23.05ZM93.05 24.45C92.69 23.5 91.61 21.75 89.41 21.75C87.22 21.75 85.39 23.47 85.39 26C85.39 28.38 87.2 30.25 89.62 30.25C91.56 30.25 92.69 29.06 93.16 28.37L91.71 27.4C91.23 28.11 90.57 28.58 89.62 28.58C88.67 28.58 87.99 28.14 87.55 27.29L93.24 24.94L93.05 24.45ZM87.25 25.87C87.2 24.23 88.52 23.39 89.47 23.39C90.21 23.39 90.84 23.76 91.05 24.29L87.25 25.87ZM82.62 30L84.49 30L84.49 17.49L82.62 17.49L82.62 30ZM79.56 22.7L79.5 22.7C79.08 22.2 78.27 21.75 77.26 21.75C75.13 21.75 73.18 23.62 73.18 26.02C73.18 28.4 75.13 30.25 77.26 30.25C78.27 30.25 79.08 29.8 79.5 29.29L79.56 29.29L79.56 29.9C79.56 31.53 78.69 32.4 77.29 32.4C76.15 32.4 75.44 31.58 75.15 30.88L73.52 31.56C73.99 32.69 75.23 34.07 77.29 34.07C79.48 34.07 81.33 32.78 81.33 29.64L81.33 22.01L79.56 22.01L79.56 22.7L79.56 22.7ZM77.42 28.58C76.13 28.58 75.05 27.5 75.05 26.02C75.05 24.52 76.13 23.42 77.42 23.42C78.69 23.42 79.69 24.52 79.69 26.02C79.69 27.5 78.69 28.58 77.42 28.58ZM101.8 17.49L97.33 17.49L97.33 30L99.2 30L99.2 25.26L101.8 25.26C103.87 25.26 105.9 23.76 105.9 21.38C105.9 18.99 103.87 17.49 101.8 17.49ZM101.85 23.52L99.2 23.52L99.2 19.23L101.85 19.23C103.24 19.23 104.04 20.39 104.04 21.38C104.04 22.35 103.24 23.52 101.85 23.52ZM113.38 21.72C112.03 21.72 110.63 22.32 110.05 23.64L111.71 24.33C112.06 23.64 112.72 23.41 113.41 23.41C114.38 23.41 115.36 23.99 115.38 25.02L115.38 25.15C115.04 24.96 114.31 24.67 113.43 24.67C111.64 24.67 109.83 25.65 109.83 27.48C109.83 29.15 111.29 30.23 112.93 30.23C114.18 30.23 114.88 29.67 115.31 29.01L115.37 29.01L115.37 29.97L117.18 29.97L117.18 25.18C117.18 22.96 115.52 21.72 113.38 21.72ZM113.16 28.58C112.55 28.58 111.69 28.27 111.69 27.51C111.69 26.55 112.75 26.18 113.67 26.18C114.49 26.18 114.88 26.36 115.38 26.6C115.23 27.76 114.23 28.58 113.16 28.58ZM123.74 22L121.6 27.42L121.54 27.42L119.32 22L117.31 22L120.63 29.57L118.74 33.79L120.68 33.79L125.81 22L123.74 22ZM106.93 30L108.8 30L108.8 17.49L106.93 17.49L106.93 30Z" fill="#FFFFFF" fill-opacity="1.000000" fill-rule="nonzero"/>
    <path id="Get it on" d="M73.6 12.22C73.01 12.83 72.28 13.13 71.4 13.13C70.53 13.13 69.79 12.83 69.2 12.22C68.61 11.61 68.32 10.87 68.32 10C68.32 9.12 68.61 8.38 69.2 7.77C69.79 7.16 70.53 6.86 71.4 6.86C72.28 6.86 73.01 7.17 73.6 7.77C74.19 8.38 74.49 9.12 74.49 10C74.49 10.87 74.19 11.61 73.6 12.22ZM47.41 10.24C47.41 11.08 47.17 11.74 46.67 12.24C46.1 12.83 45.37 13.13 44.46 13.13C43.6 13.13 42.86 12.83 42.26 12.23C41.65 11.63 41.35 10.88 41.35 10C41.35 9.11 41.65 8.36 42.26 7.76C42.86 7.16 43.6 6.86 44.46 6.86C44.89 6.86 45.31 6.95 45.7 7.11C46.09 7.28 46.4 7.5 46.63 7.78L46.11 8.31C45.71 7.84 45.16 7.6 44.46 7.6C43.83 7.6 43.29 7.82 42.82 8.26C42.36 8.71 42.13 9.29 42.13 10C42.13 10.7 42.36 11.28 42.82 11.73C43.29 12.17 43.83 12.39 44.46 12.39C45.13 12.39 45.69 12.17 46.14 11.72C46.43 11.43 46.6 11.02 46.64 10.51L44.46 10.51L44.46 9.78L47.37 9.78C47.4 9.94 47.41 10.09 47.41 10.24ZM52.02 7.73L49.29 7.73L49.29 9.63L51.76 9.63L51.76 10.36L49.29 10.36L49.29 12.26L52.02 12.26L52.02 13L48.52 13L48.52 7L52.02 7L52.02 7.73ZM55.27 13L54.5 13L54.5 7.73L52.83 7.73L52.83 7L56.95 7L56.95 7.73L55.27 7.73L55.27 13ZM59.93 13L59.93 7L60.7 7L60.7 13L59.93 13ZM64.12 13L63.35 13L63.35 7.73L61.68 7.73L61.68 7L65.8 7L65.8 7.73L64.12 7.73L64.12 13ZM75.57 13L75.57 7L76.51 7L79.42 11.66L79.46 11.66L79.42 10.51L79.42 7L80.19 7L80.19 13L79.39 13L76.34 8.1L76.31 8.1L76.34 9.26L76.34 13L75.57 13ZM69.77 11.72C70.22 12.17 70.76 12.39 71.4 12.39C72.05 12.39 72.59 12.17 73.03 11.72C73.48 11.27 73.7 10.69 73.7 10C73.7 9.3 73.48 8.72 73.03 8.27C72.59 7.82 72.05 7.6 71.4 7.6C70.76 7.6 70.22 7.82 69.77 8.27C69.33 8.72 69.11 9.3 69.11 10C69.11 10.69 69.33 11.27 69.77 11.72Z" fill="#FFFFFF" fill-opacity="1.000000" fill-rule="evenodd"/>
    <path id="Get it on" d="M46.67 12.24C46.1 12.83 45.37 13.13 44.46 13.13C43.6 13.13 42.86 12.83 42.26 12.23C41.65 11.63 41.35 10.88 41.35 10C41.35 9.11 41.65 8.36 42.26 7.76C42.86 7.16 43.6 6.86 44.46 6.86C44.89 6.86 45.31 6.95 45.7 7.11C46.09 7.28 46.4 7.5 46.63 7.78L46.11 8.31C45.71 7.84 45.16 7.6 44.46 7.6C43.83 7.6 43.29 7.82 42.82 8.26C42.36 8.71 42.13 9.29 42.13 10C42.13 10.7 42.36 11.28 42.82 11.73C43.29 12.17 43.83 12.39 44.46 12.39C45.13 12.39 45.69 12.17 46.14 11.72C46.43 11.43 46.6 11.02 46.64 10.51L44.46 10.51L44.46 9.78L47.37 9.78C47.4 9.94 47.41 10.09 47.41 10.24C47.41 11.08 47.17 11.74 46.67 12.24ZM49.29 7.73L49.29 9.63L51.76 9.63L51.76 10.36L49.29 10.36L49.29 12.26L52.02 12.26L52.02 13L48.52 13L48.52 7L52.02 7L52.02 7.73L49.29 7.73ZM54.5 13L54.5 7.73L52.83 7.73L52.83 7L56.95 7L56.95 7.73L55.27 7.73L55.27 13L54.5 13ZM59.93 7L60.7 7L60.7 13L59.93 13L59.93 7ZM63.35 13L63.35 7.73L61.68 7.73L61.68 7L65.8 7L65.8 7.73L64.12 7.73L64.12 13L63.35 13ZM71.4 13.13C70.53 13.13 69.79 12.83 69.2 12.22C68.61 11.61 68.32 10.87 68.32 10C68.32 9.12 68.61 8.38 69.2 7.77C69.79 7.16 70.53 6.86 71.4 6.86C72.28 6.86 73.01 7.17 73.6 7.77C74.19 8.38 74.49 9.12 74.49 10C74.49 10.87 74.19 11.61 73.6 12.22C73.01 12.83 72.28 13.13 71.4 13.13ZM71.4 12.39C72.05 12.39 72.59 12.17 73.03 11.72C73.48 11.27 73.7 10.69 73.7 10C73.7 9.3 73.48 8.72 73.03 8.27C72.59 7.82 72.05 7.6 71.4 7.6C70.76 7.6 70.22 7.82 69.77 8.27C69.33 8.72 69.11 9.3 69.11 10C69.11 10.69 69.33 11.27 69.77 11.72C70.22 12.17 70.76 12.39 71.4 12.39ZM75.57 7L76.51 7L79.42 11.66L79.46 11.66L79.42 10.51L79.42 7L80.19 7L80.19 13L79.39 13L76.34 8.1L76.31 8.1L76.34 9.26L76.34 13L75.57 13L75.57 7Z" stroke="#FFFFFF" stroke-opacity="1.000000" stroke-width="0.200000"/>
    <g filter="url(#filter_13_13_dd)">
      <path id="Vector" d="M10.43 7.53C10.14 7.84 9.97 8.32 9.97 8.94L9.97 31.05C9.97 31.67 10.14 32.15 10.43 32.46L10.51 32.53L22.89 20.14L22.89 20L22.89 19.85L10.51 7.46L10.43 7.53Z" fill="url(#paint_linear_13_9_0)" fill-opacity="1.000000" fill-rule="nonzero"/>
      <path id="Vector" d="M27.02 24.27L22.89 20.14L22.89 20L22.89 19.85L27.02 15.72L27.12 15.77L32.01 18.55C33.41 19.35 33.41 20.65 32.01 21.44L27.12 24.22L27.02 24.27Z" fill="url(#paint_linear_13_10_0)" fill-opacity="1.000000" fill-rule="nonzero"/>
      <g filter="url(#filter_13_11_dd)">
        <path id="Vector" d="M27.12 24.22L22.89 20L10.43 32.46C10.89 32.95 11.65 33.01 12.51 32.52L27.12 24.22Z" fill="url(#paint_linear_13_11_0)" fill-opacity="1.000000" fill-rule="nonzero"/>
      </g>
      <path id="Vector" d="M27.12 15.77L12.51 7.47C11.65 6.98 10.89 7.05 10.43 7.53L22.89 20L27.12 15.77Z" fill="url(#paint_linear_13_12_0)" fill-opacity="1.000000" fill-rule="nonzero"/>
    </g>
  </g>
  <rect id="Store=Google Play, Style=Black" rx="4.500000" width="134.000000" height="39.000000" transform="translate(0.500000 0.500000)" stroke="#A6A6A6" stroke-opacity="1.000000" stroke-width="1.000000"/>
</svg>