<svg width="101.000000" height="24.000000" viewBox="0 0 101 24" fill="none" xmlns="http://www.w3.org/2000/svg" xmlns:xlink="http://www.w3.org/1999/xlink">
	<path d="M88.22 22.68Q89.53 23.26 91.24 23.26Q93.15 23.26 94.43 22.6Q95.7 21.93 96.52 20.91L96.52 20.91L96.52 22.14Q96.52 22.33 96.6 22.5Q96.65 22.61 96.73 22.7Q96.78 22.75 96.84 22.79Q97.04 22.93 97.32 22.93L99.92 22.93Q100.11 22.93 100.26 22.85Q100.38 22.8 100.48 22.7Q100.59 22.58 100.65 22.44Q100.71 22.3 100.71 22.14L100.71 0.29Q100.71 0.11 100.65 -0.03Q100.59 -0.16 100.48 -0.27Q100.37 -0.38 100.24 -0.44Q100.1 -0.5 99.92 -0.5L97.12 -0.5Q96.87 -0.5 96.68 -0.39Q96.6 -0.34 96.54 -0.27Q96.46 -0.19 96.41 -0.09Q96.33 0.08 96.33 0.29L96.33 7.61Q95.5 6.66 94.26 6.05Q93.02 5.43 91.24 5.43Q89.53 5.43 88.22 6.03Q87.35 6.43 86.66 7.04Q86.33 7.35 86.04 7.7L86.04 7.7Q85.17 8.77 84.73 10.19Q84.28 11.61 84.21 13.26Q84.18 13.85 84.18 14.33Q84.18 14.8 84.21 15.4Q84.28 17.12 84.74 18.55Q85.2 19.98 86.06 21.05Q86.3 21.35 86.58 21.61Q87.29 22.27 88.22 22.68ZM22.22 22.86Q22.36 22.93 22.54 22.93L25.44 22.93Q25.69 22.93 25.88 22.82Q25.96 22.77 26.04 22.7Q26.15 22.58 26.21 22.44Q26.27 22.3 26.27 22.14L26.27 13.95L36.2 13.95Q36.46 13.95 36.65 13.84Q36.73 13.79 36.79 13.72Q36.91 13.61 36.97 13.47Q37.02 13.33 37.02 13.16L37.02 10.85Q37.02 10.61 36.92 10.43Q36.87 10.33 36.79 10.25Q36.72 10.18 36.63 10.13Q36.45 10.02 36.2 10.02L26.27 10.02L26.27 3.75L36.86 3.75Q37.16 3.75 37.37 3.61Q37.41 3.58 37.45 3.54Q37.52 3.47 37.57 3.4Q37.69 3.21 37.69 2.96L37.69 0.65Q37.69 0.4 37.58 0.22Q37.53 0.13 37.45 0.06Q37.39 -0.01 37.31 -0.05Q37.12 -0.17 36.86 -0.17L22.54 -0.17Q22.37 -0.17 22.23 -0.11Q22.09 -0.06 21.97 0.06Q21.9 0.13 21.85 0.22Q21.74 0.4 21.74 0.65L21.74 22.14Q21.74 22.3 21.8 22.44Q21.86 22.58 21.97 22.7Q22.08 22.81 22.22 22.86ZM45.65 22.34Q47.45 23.26 50.09 23.26Q52.73 23.26 54.53 22.34Q55.71 21.73 56.51 20.81Q56.94 20.31 57.27 19.73Q58.21 18.04 58.34 15.8Q58.38 15.21 58.38 14.35Q58.38 13.49 58.34 12.89Q58.21 10.61 57.23 8.95Q56.88 8.34 56.42 7.84Q55.61 6.95 54.46 6.36Q52.67 5.43 50.09 5.43Q47.52 5.43 45.71 6.36Q44.57 6.95 43.76 7.84Q43.3 8.34 42.94 8.95Q41.98 10.61 41.84 12.89Q41.81 13.49 41.81 14.35Q41.81 15.21 41.84 15.8Q41.98 18.04 42.91 19.73Q43.25 20.33 43.7 20.84Q44.5 21.75 45.65 22.34ZM66.84 22.34Q68.64 23.26 71.27 23.26Q73.92 23.26 75.71 22.34Q76.89 21.73 77.7 20.81Q78.13 20.31 78.45 19.73Q79.4 18.04 79.52 15.8Q79.56 15.21 79.56 14.35Q79.56 13.49 79.52 12.89Q79.4 10.61 78.42 8.95Q78.07 8.34 77.61 7.84Q76.79 6.95 75.65 6.36Q73.85 5.43 71.27 5.43Q68.7 5.43 66.9 6.36Q65.75 6.95 64.94 7.84Q64.48 8.34 64.13 8.95Q63.16 10.61 63.02 12.89Q62.99 13.49 62.99 14.35Q62.99 15.21 63.02 15.8Q63.16 18.04 64.1 19.73Q64.44 20.33 64.89 20.84Q65.69 21.75 66.84 22.34ZM52.29 19.35Q51.42 19.98 50.09 19.98Q48.78 19.98 47.91 19.36Q47.62 19.16 47.38 18.88Q46.43 17.78 46.33 15.63Q46.29 15.13 46.29 14.35Q46.29 13.56 46.33 13.06Q46.43 10.91 47.38 9.81Q47.62 9.53 47.91 9.33Q48.78 8.71 50.09 8.71Q51.42 8.71 52.29 9.34Q52.57 9.54 52.8 9.81Q53.75 10.91 53.85 13.06Q53.88 13.56 53.88 14.35Q53.88 15.13 53.85 15.63Q53.75 17.78 52.8 18.88Q52.57 19.15 52.29 19.35ZM73.47 19.35Q72.61 19.98 71.27 19.98Q69.96 19.98 69.1 19.36Q68.81 19.16 68.57 18.88Q67.62 17.78 67.51 15.63Q67.48 15.13 67.48 14.35Q67.48 13.56 67.51 13.06Q67.62 10.91 68.57 9.81Q68.81 9.53 69.1 9.33Q69.96 8.71 71.27 8.71Q72.61 8.71 73.47 9.34Q73.75 9.54 73.98 9.81Q74.94 10.91 75.04 13.06Q75.07 13.56 75.07 14.35Q75.07 15.13 75.04 15.63Q74.94 17.78 73.98 18.88Q73.75 19.15 73.47 19.35ZM94.67 19.1Q93.85 19.73 92.46 19.73Q91.07 19.73 90.27 19.11Q89.97 18.89 89.74 18.61Q89.33 18.14 89.1 17.51Q88.74 16.52 88.67 15.34Q88.65 14.84 88.65 14.35Q88.65 13.85 88.67 13.35Q88.74 12.17 89.1 11.18Q89.33 10.55 89.74 10.08Q89.97 9.8 90.27 9.58Q91.07 8.96 92.46 8.96Q93.78 8.96 94.6 9.56Q95.07 9.9 95.41 10.33Q95.67 10.67 95.86 11.07Q96.1 11.57 96.22 12.1Q96.31 12.52 96.33 12.96Q96.36 13.56 96.36 14.23Q96.36 14.91 96.33 15.5Q96.32 15.77 96.28 16.04Q96.19 16.78 95.89 17.5Q95.68 18.02 95.34 18.44Q95.05 18.81 94.67 19.1Z" fill="#363853" fill-opacity="1.000000" fill-rule="evenodd"/>
	<path d="M0.04 22.86Q0.19 22.93 0.36 22.93L15.15 22.93Q15.41 22.93 15.59 22.81Q15.67 22.76 15.73 22.7Q15.85 22.58 15.91 22.44Q15.97 22.3 15.97 22.14L15.97 19.95Q15.97 19.71 15.86 19.52Q15.81 19.44 15.73 19.36Q15.66 19.29 15.57 19.24Q15.39 19.13 15.15 19.13L4.02 19.13L4.02 13.09L14.16 13.09Q14.44 13.09 14.64 12.96Q14.7 12.92 14.74 12.88Q14.82 12.81 14.86 12.73Q14.98 12.55 14.98 12.3L14.98 10.25Q14.98 9.99 14.86 9.81Q14.81 9.74 14.74 9.68Q14.69 9.63 14.62 9.59Q14.43 9.46 14.16 9.46L4.02 9.46L4.02 3.62L14.88 3.62Q15.14 3.62 15.33 3.51Q15.4 3.46 15.47 3.4Q15.59 3.28 15.64 3.14Q15.7 3 15.7 2.83L15.7 0.65Q15.7 0.4 15.6 0.22Q15.54 0.13 15.47 0.06Q15.4 -0.01 15.31 -0.07Q15.13 -0.17 14.88 -0.17L0.36 -0.17Q0.2 -0.17 0.06 -0.11Q-0.08 -0.06 -0.2 0.06Q-0.28 0.13 -0.33 0.22Q-0.43 0.4 -0.43 0.65L-0.43 22.14Q-0.43 22.3 -0.38 22.44Q-0.32 22.58 -0.2 22.7Q-0.09 22.81 0.04 22.86Z" fill="#FF6838" fill-opacity="1.000000" fill-rule="evenodd"/>
</svg>