<svg width="44.000000" height="33.000000" viewBox="0 0 44 33" fill="none" xmlns="http://www.w3.org/2000/svg" xmlns:xlink="http://www.w3.org/1999/xlink">
	<defs/>
	<path id="Vector" d="M15.13 7.56L17.25 7.56C17.8 7.56 18.25 8.01 18.25 8.56L18.25 10.03C18.25 10.38 18.54 10.67 18.9 10.67C19.25 10.67 19.54 10.38 19.54 10.03L19.54 8.56C19.54 7.3 18.51 6.27 17.25 6.27L15.13 6.27C14.58 6.27 14.14 5.83 14.14 5.29C14.14 4.75 14.58 4.31 15.13 4.31L19.84 4.31C21.09 4.31 22.11 3.29 22.11 2.03C22.11 0.78 21.09 -0.24 19.84 -0.24L16.07 -0.24C15.71 -0.24 15.42 0.05 15.42 0.41C15.42 0.76 15.71 1.05 16.07 1.05L19.84 1.05C20.38 1.05 20.82 1.49 20.82 2.03C20.82 2.58 20.38 3.02 19.84 3.02L15.13 3.02C13.87 3.02 12.85 4.04 12.85 5.29C12.85 6.54 13.87 7.56 15.13 7.56Z" fill="#363853" fill-opacity="1.000000" fill-rule="nonzero"/>
	<path id="Vector" d="M7.38 11.89L9.49 11.89C10.04 11.89 10.48 12.33 10.48 12.87L10.48 14.33C10.48 14.68 10.77 14.97 11.12 14.97C11.48 14.97 11.77 14.68 11.77 14.33L11.77 12.87C11.77 11.62 10.75 10.6 9.49 10.6L7.38 10.6C6.85 10.6 6.41 10.16 6.41 9.63C6.41 9.09 6.85 8.66 7.38 8.66L9.85 8.66C10.2 8.66 10.49 8.37 10.49 8.01C10.49 7.66 10.2 7.37 9.85 7.37L7.38 7.37C6.14 7.37 5.12 8.38 5.12 9.63C5.12 10.87 6.14 11.89 7.38 11.89Z" fill="#363853" fill-opacity="1.000000" fill-rule="nonzero"/>
	<path id="Vector" d="M26.29 20.16C26.29 20.52 26 20.81 25.65 20.81C25.29 20.81 25 20.52 25 20.16C25 19.81 25.29 19.52 25.65 19.52C26 19.52 26.29 19.81 26.29 20.16Z" fill="#363853" fill-opacity="1.000000" fill-rule="evenodd"/>
	<path id="Vector" d="M29.47 21.62C29.47 21.98 29.18 22.27 28.83 22.27C28.47 22.27 28.18 21.98 28.18 21.62C28.18 21.27 28.47 20.98 28.83 20.98C29.18 20.98 29.47 21.27 29.47 21.62Z" fill="#363853" fill-opacity="1.000000" fill-rule="evenodd"/>
	<path id="Vector" d="M31.36 23.86C31.36 24.21 31.07 24.5 30.72 24.5C30.36 24.5 30.07 24.21 30.07 23.86C30.07 23.5 30.36 23.21 30.72 23.21C31.07 23.21 31.36 23.5 31.36 23.86Z" fill="#363853" fill-opacity="1.000000" fill-rule="evenodd"/>
	<path id="Vector" d="M28.7 18.62C28.7 18.97 28.41 19.26 28.05 19.26C27.7 19.26 27.41 18.97 27.41 18.62C27.41 18.26 27.7 17.97 28.05 17.97C28.41 17.97 28.7 18.26 28.7 18.62Z" fill="#363853" fill-opacity="1.000000" fill-rule="evenodd"/>
	<path id="Vector" d="M26.55 24.29C26.55 24.64 26.26 24.93 25.91 24.93C25.55 24.93 25.26 24.64 25.26 24.29C25.26 23.93 25.55 23.64 25.91 23.64C26.26 23.64 26.55 23.93 26.55 24.29Z" fill="#363853" fill-opacity="1.000000" fill-rule="evenodd"/>
	<path id="Vector" d="M42.91 16.81L41.08 16.81L41.98 14.94C43.13 14.71 44 13.7 44 12.48C44 11.24 43.08 10.21 41.89 10.01C40.58 7.64 38.01 5.87 34.89 5.16L34.89 5.11C34.89 4.75 34.6 4.46 34.25 4.46C33.95 4.46 33.7 4.66 33.63 4.93C33.24 4.88 32.84 4.85 32.43 4.83C32.33 4.61 32.11 4.46 31.85 4.46C31.59 4.46 31.37 4.61 31.27 4.83C30.86 4.85 30.46 4.88 30.07 4.93C29.99 4.66 29.75 4.46 29.45 4.46C29.1 4.46 28.81 4.75 28.81 5.11L28.81 5.16C25.69 5.87 23.12 7.64 21.81 10.01C20.62 10.21 19.7 11.24 19.7 12.48C19.7 12.56 19.71 12.63 19.71 12.7C16.74 12.98 14.06 14.22 12.06 16.08L8.01 16.08C7.73 16.08 7.49 16.21 7.32 16.4L5.43 16.4C5.12 15.62 4.35 15.07 3.47 15.07C2.31 15.07 1.36 16.01 1.36 17.17C1.36 17.27 1.37 17.37 1.39 17.46C0.58 17.76 0 18.53 0 19.44C0 19.85 0.11 20.23 0.32 20.57C0.11 20.9 0 21.29 0 21.69C0 22.85 0.94 23.8 2.1 23.8C2.98 23.8 3.75 23.24 4.06 22.46L5.76 22.46C5.84 22.75 6.05 22.98 6.35 23.08L8.37 23.77C8.35 23.98 8.35 24.19 8.35 24.4C8.35 24.6 8.35 24.79 8.36 24.99C8.05 25.07 7.75 25.2 7.49 25.37C7.06 25.08 6.54 24.91 5.98 24.91C4.48 24.91 3.26 26.13 3.26 27.63C3.26 27.66 3.27 27.68 3.27 27.7L2.51 27.7C2.09 27.7 1.71 27.94 1.53 28.33C1.35 28.71 1.4 29.15 1.67 29.48L3.6 31.83C3.81 32.08 4.12 32.23 4.45 32.23L31.71 32.23C32.06 32.23 32.35 31.94 32.35 31.58C32.35 31.23 32.06 30.94 31.71 30.94L4.54 30.94L2.94 28.99L42.48 28.99L40.88 30.94L34.71 30.94C34.36 30.94 34.07 31.23 34.07 31.58C34.07 31.94 34.36 32.23 34.71 32.23L40.97 32.23C41.3 32.23 41.6 32.08 41.81 31.83L43.75 29.48C44.02 29.15 44.07 28.71 43.89 28.33C43.71 27.94 43.33 27.7 42.9 27.7L42.27 27.7C42.9 26.61 43.14 25.31 42.91 24.03C42.86 23.77 42.65 23.56 42.39 23.51C40.64 23.19 38.85 23.75 37.6 25.01C37.52 25.08 37.45 25.16 37.38 25.24C37.01 25.04 36.59 24.93 36.14 24.92L36.14 23.69L36.83 23.69C37.92 23.69 38.81 22.8 38.81 21.71L38.81 20.85L42.91 20.85C43.51 20.85 44 20.36 44 19.76L44 17.89C44 17.29 43.51 16.81 42.91 16.81ZM6.29 27.7L4.56 27.7C4.55 27.68 4.55 27.66 4.55 27.63C4.55 26.85 5.19 26.2 5.98 26.2C6.21 26.2 6.42 26.26 6.61 26.35C6.4 26.73 6.28 27.17 6.28 27.63C6.28 27.66 6.28 27.68 6.29 27.7ZM38.51 25.92C39.35 25.07 40.52 24.64 41.7 24.72C41.77 25.81 41.41 26.88 40.69 27.7L39.63 27.7L40.51 26.82C40.76 26.57 40.76 26.16 40.51 25.91C40.26 25.66 39.85 25.66 39.6 25.91L38.68 26.82C38.6 26.56 38.48 26.32 38.34 26.11C38.39 26.04 38.45 25.98 38.51 25.92ZM25.5 7.94C26.47 7.28 27.6 6.79 28.81 6.49L28.81 7.15C28.81 7.5 29.1 7.79 29.45 7.79C29.81 7.79 30.1 7.5 30.1 7.15L30.1 6.23C30.46 6.18 30.83 6.14 31.2 6.12L31.2 7.15C31.2 7.5 31.49 7.79 31.85 7.79C32.21 7.79 32.49 7.5 32.49 7.15L32.49 6.12C32.87 6.14 33.24 6.18 33.6 6.23L33.6 7.15C33.6 7.5 33.89 7.79 34.25 7.79C34.6 7.79 34.89 7.5 34.89 7.15L34.89 6.49C36.1 6.79 37.23 7.28 38.2 7.94C39.15 8.57 39.93 9.34 40.49 10.19C40.27 10.29 40.07 10.42 39.89 10.57C39.44 10.2 38.87 9.98 38.28 9.98C37.68 9.98 37.12 10.2 36.67 10.57C36.23 10.2 35.66 9.98 35.06 9.98C34.47 9.98 33.9 10.2 33.46 10.57C33.01 10.2 32.44 9.98 31.85 9.98C31.26 9.98 30.69 10.2 30.24 10.57C29.8 10.2 29.23 9.98 28.64 9.98C28.04 9.98 27.47 10.2 27.03 10.57C26.58 10.2 26.02 9.98 25.42 9.98C24.83 9.98 24.26 10.2 23.81 10.57C23.63 10.42 23.43 10.29 23.21 10.19C23.77 9.34 24.55 8.57 25.5 7.94ZM22.21 11.27C22.64 11.27 23.04 11.5 23.26 11.88C23.37 12.08 23.58 12.2 23.81 12.2C24.04 12.2 24.26 12.08 24.37 11.88C24.59 11.5 24.99 11.27 25.42 11.27C25.85 11.27 26.25 11.5 26.47 11.88C26.59 12.08 26.8 12.2 27.03 12.2C27.26 12.2 27.47 12.08 27.59 11.88C27.8 11.5 28.2 11.27 28.64 11.27C29.07 11.27 29.47 11.5 29.68 11.88C29.8 12.08 30.01 12.2 30.24 12.2C30.47 12.2 30.68 12.08 30.8 11.88C31.02 11.5 31.42 11.27 31.85 11.27C32.28 11.27 32.68 11.5 32.9 11.88C33.01 12.08 33.23 12.2 33.46 12.2C33.69 12.2 33.9 12.08 34.01 11.88C34.23 11.5 34.63 11.27 35.06 11.27C35.49 11.27 35.9 11.5 36.11 11.88C36.23 12.08 36.44 12.2 36.67 12.2C36.9 12.2 37.11 12.08 37.23 11.88C37.45 11.5 37.85 11.27 38.28 11.27C38.71 11.27 39.11 11.5 39.33 11.88C39.44 12.08 39.66 12.2 39.89 12.2C40.11 12.2 40.33 12.08 40.44 11.88C40.66 11.5 41.06 11.27 41.49 11.27C42.16 11.27 42.71 11.81 42.71 12.48C42.71 13.15 42.16 13.7 41.49 13.7C41.06 13.7 40.66 13.47 40.44 13.09C40.33 12.89 40.11 12.77 39.89 12.77C39.66 12.77 39.44 12.89 39.33 13.09C39.11 13.47 38.71 13.7 38.28 13.7C37.85 13.7 37.45 13.47 37.23 13.09C37.11 12.89 36.9 12.77 36.67 12.77C36.44 12.77 36.23 12.89 36.11 13.09C35.9 13.47 35.49 13.7 35.06 13.7C34.63 13.7 34.23 13.47 34.01 13.09C33.9 12.89 33.69 12.77 33.46 12.77C33.23 12.77 33.01 12.89 32.9 13.09C32.68 13.47 32.28 13.7 31.85 13.7C31.42 13.7 31.02 13.47 30.8 13.09C30.68 12.89 30.47 12.77 30.24 12.77C30.01 12.77 29.8 12.89 29.68 13.09C29.47 13.47 29.07 13.7 28.64 13.7C28.2 13.7 27.8 13.47 27.59 13.09C27.47 12.89 27.26 12.77 27.03 12.77C26.8 12.77 26.59 12.89 26.47 13.09C26.34 13.31 26.15 13.48 25.93 13.58C24.42 12.98 22.75 12.64 21 12.64C21 12.59 20.99 12.54 20.99 12.48C20.99 11.81 21.54 11.27 22.21 11.27ZM8.39 17.37L10.86 17.37C10.6 17.69 10.37 18.02 10.15 18.36L8.39 18.36L8.39 17.37ZM5.73 21.17L3.55 21.17C3.22 21.17 2.94 21.43 2.91 21.76C2.87 22.18 2.52 22.51 2.1 22.51C1.65 22.51 1.28 22.14 1.28 21.69C1.28 21.45 1.39 21.22 1.58 21.06C1.73 20.94 1.81 20.76 1.81 20.57C1.81 20.38 1.73 20.19 1.58 20.07C1.39 19.92 1.28 19.69 1.28 19.44C1.28 18.99 1.65 18.63 2.1 18.63C2.52 18.63 2.87 18.96 2.91 19.37C2.94 19.71 3.22 19.96 3.55 19.96L5.73 19.96L5.73 21.17L5.73 21.17ZM5.95 18.68L4.06 18.68C3.82 18.08 3.31 17.61 2.7 17.43C2.67 17.35 2.65 17.26 2.65 17.17C2.65 16.72 3.02 16.36 3.47 16.36C3.89 16.36 4.24 16.68 4.28 17.1C4.31 17.44 4.59 17.69 4.92 17.69L7.1 17.69L7.1 18.36L6.64 18.36C6.36 18.36 6.12 18.48 5.95 18.68ZM10.43 27.7L7.57 27.7C7.57 27.68 7.57 27.66 7.57 27.63C7.57 26.85 8.21 26.2 9 26.2C9.79 26.2 10.43 26.85 10.43 27.63C10.43 27.66 10.43 27.68 10.43 27.7ZM30.31 27.7L28.06 27.7C28.06 27.68 28.06 27.66 28.06 27.63C28.06 26.85 28.7 26.2 29.49 26.2C29.88 26.2 30.24 26.36 30.5 26.62C30.37 26.94 30.3 27.28 30.3 27.63C30.3 27.66 30.31 27.68 30.31 27.7ZM29.49 24.91C27.99 24.91 26.77 26.13 26.77 27.63C26.77 27.66 26.77 27.68 26.77 27.7L11.72 27.7C11.72 27.68 11.72 27.66 11.72 27.63C11.72 26.36 10.84 25.29 9.66 25C9.64 24.8 9.64 24.6 9.64 24.4C9.64 24.33 9.64 24.27 9.64 24.2L16.23 26.44C16.68 26.59 17.13 26.66 17.58 26.66C18.43 26.66 19.26 26.4 19.98 25.88C21.09 25.09 21.72 23.86 21.72 22.51C21.72 22.02 21.63 21.55 21.47 21.1C21.35 20.76 20.98 20.59 20.64 20.71C20.31 20.83 20.14 21.2 20.26 21.53C20.37 21.85 20.43 22.17 20.43 22.51C20.43 23.44 19.99 24.29 19.23 24.83C18.47 25.38 17.53 25.52 16.65 25.22L7.02 21.95L7.02 19.65L17.57 19.65C17.89 19.65 18.21 19.7 18.51 19.81C18.85 19.93 19.22 19.75 19.33 19.41C19.45 19.08 19.28 18.71 18.94 18.59C18.5 18.44 18.04 18.36 17.57 18.36L11.72 18.36C13.78 15.68 17.16 13.93 20.98 13.93C27.23 13.93 32.32 18.63 32.32 24.4C32.32 24.6 32.31 24.81 32.3 25.01C31.91 25.12 31.55 25.31 31.26 25.57C30.78 25.16 30.16 24.91 29.49 24.91ZM34.45 27.7L31.6 27.7C31.59 27.68 31.59 27.66 31.59 27.63C31.59 26.85 32.23 26.2 33.02 26.2C33.81 26.2 34.45 26.85 34.45 27.63C34.45 27.66 34.45 27.68 34.45 27.7ZM34.85 25.21C34.75 25.27 34.65 25.33 34.56 25.39C34.27 25.19 33.94 25.05 33.59 24.98C33.6 24.78 33.61 24.59 33.61 24.4C33.61 24.16 33.6 23.92 33.58 23.69L34.85 23.69L34.85 25.21ZM37.52 27.63C37.52 27.66 37.52 27.68 37.52 27.7L35.74 27.7C35.74 27.68 35.74 27.66 35.74 27.63C35.74 27.18 35.63 26.75 35.43 26.37C35.62 26.26 35.85 26.2 36.09 26.2C36.88 26.2 37.52 26.85 37.52 27.63ZM37.52 21.71C37.52 22.09 37.21 22.4 36.83 22.4L33.42 22.4C33.33 21.87 33.19 21.35 33.02 20.85L37.52 20.85L37.52 21.71ZM42.71 19.56L32.49 19.56C32.24 19.05 31.96 18.56 31.64 18.1L34.37 18.1C34.73 18.1 35.01 17.81 35.01 17.45C35.01 17.09 34.73 16.81 34.37 16.81L30.61 16.81C30 16.13 29.3 15.52 28.54 14.98C28.57 14.99 28.6 14.99 28.64 14.99C29.23 14.99 29.8 14.77 30.24 14.4C30.69 14.77 31.26 14.99 31.85 14.99C32.44 14.99 33.01 14.77 33.46 14.4C33.9 14.77 34.47 14.99 35.06 14.99C35.66 14.99 36.23 14.77 36.67 14.4C37.12 14.77 37.68 14.99 38.28 14.99C38.87 14.99 39.44 14.77 39.89 14.4C40.1 14.58 40.34 14.72 40.61 14.82L39.65 16.81L37.38 16.81C37.02 16.81 36.73 17.09 36.73 17.45C36.73 17.81 37.02 18.1 37.38 18.1L42.71 18.1L42.71 19.56Z" fill="#363853" fill-opacity="1.000000" fill-rule="nonzero"/>
</svg>