<svg width="44.000000" height="39.000000" viewBox="0 0 44 39" fill="none" xmlns="http://www.w3.org/2000/svg" xmlns:xlink="http://www.w3.org/1999/xlink">
	<path id="Vector" d="M44 19.33C44 17.64 42.91 16.2 41.39 15.68C41.16 10.44 39.2 6.41 35.57 3.71C32.25 1.25 27.68 0 22 0C16.31 0 11.74 1.25 8.42 3.71C4.79 6.41 2.83 10.44 2.6 15.68C1.08 16.2 0 17.64 0 19.33C0 20.32 0.37 21.22 0.98 21.91C0.37 22.59 0 23.5 0 24.49C0 26.19 1.1 27.63 2.62 28.15C3.18 34.04 8.18 38.67 14.26 38.67L29.73 38.67C35.81 38.67 40.81 34.04 41.37 28.15C42.89 27.63 44 26.19 44 24.49C44 23.5 43.62 22.59 43.01 21.91C43.62 21.22 44 20.32 44 19.33ZM22 2.57C29.39 2.57 38.15 4.85 38.8 15.46L5.19 15.46C5.84 4.85 14.6 2.57 22 2.57ZM3.86 18.04L40.13 18.04C40.84 18.04 41.42 18.62 41.42 19.33C41.42 20.04 40.84 20.62 40.13 20.62L3.86 20.62C3.15 20.62 2.57 20.04 2.57 19.33C2.57 18.62 3.15 18.04 3.86 18.04ZM29.73 36.09L14.26 36.09C9.68 36.09 5.88 32.72 5.24 28.35L6.44 28.35C7.3 28.35 7.57 28.65 8.12 29.23C8.78 29.95 9.7 30.93 11.68 30.93C13.68 30.93 14.57 29.94 15.22 29.21C15.73 28.64 15.99 28.35 16.84 28.35C17.69 28.35 17.94 28.64 18.46 29.21C19.11 29.94 20 30.93 22 30.93C23.99 30.93 24.88 29.94 25.53 29.21C26.05 28.64 26.3 28.35 27.15 28.35C28 28.35 28.26 28.64 28.77 29.21C29.42 29.94 30.31 30.93 32.31 30.93C34.31 30.93 35.2 29.94 35.85 29.21C36.36 28.64 36.62 28.35 37.46 28.35L38.75 28.35C38.11 32.72 34.31 36.09 29.73 36.09ZM40.13 25.78L37.46 25.78C35.46 25.78 34.57 26.77 33.93 27.49C33.41 28.07 33.16 28.35 32.31 28.35C31.46 28.35 31.2 28.07 30.69 27.49C30.04 26.77 29.15 25.78 27.15 25.78C25.15 25.78 24.26 26.77 23.61 27.49C23.1 28.07 22.84 28.35 22 28.35C21.15 28.35 20.89 28.07 20.38 27.49C19.73 26.77 18.84 25.78 16.84 25.78C14.84 25.78 13.95 26.77 13.3 27.49C12.79 28.07 12.53 28.35 11.68 28.35C10.82 28.35 10.55 28.06 10.01 27.48C9.34 26.76 8.43 25.78 6.44 25.78L3.86 25.78C3.15 25.78 2.57 25.2 2.57 24.49C2.57 23.78 3.15 23.2 3.86 23.2L40.13 23.2C40.84 23.2 41.42 23.78 41.42 24.49C41.42 25.2 40.84 25.78 40.13 25.78Z" fill="#FFFFFF" fill-opacity="1.000000" fill-rule="nonzero"/>
	<path id="Vector" d="M15.55 11.6C15.55 12.31 14.97 12.89 14.26 12.89C13.55 12.89 12.97 12.31 12.97 11.6C12.97 10.88 13.55 10.31 14.26 10.31C14.97 10.31 15.55 10.88 15.55 11.6Z" fill="#FFFFFF" fill-opacity="1.000000" fill-rule="evenodd"/>
	<path id="Vector" d="M31.02 11.6C31.02 12.31 30.44 12.89 29.73 12.89C29.02 12.89 28.44 12.31 28.44 11.6C28.44 10.88 29.02 10.31 29.73 10.31C30.44 10.31 31.02 10.88 31.02 11.6Z" fill="#FFFFFF" fill-opacity="1.000000" fill-rule="evenodd"/>
	<path id="Vector" d="M25.86 9.02C25.86 9.73 25.29 10.31 24.57 10.31C23.86 10.31 23.28 9.73 23.28 9.02C23.28 8.31 23.86 7.73 24.57 7.73C25.29 7.73 25.86 8.31 25.86 9.02Z" fill="#FFFFFF" fill-opacity="1.000000" fill-rule="evenodd"/>
	<path id="Vector" d="M20.71 6.44C20.71 7.15 20.13 7.73 19.42 7.73C18.7 7.73 18.13 7.15 18.13 6.44C18.13 5.73 18.7 5.15 19.42 5.15C20.13 5.15 20.71 5.73 20.71 6.44Z" fill="#FFFFFF" fill-opacity="1.000000" fill-rule="evenodd"/>
</svg>