<svg width="20.000000" height="19.000000" viewBox="0 0 20 19" fill="none" xmlns="http://www.w3.org/2000/svg" xmlns:xlink="http://www.w3.org/1999/xlink">
	<path id="Stroke 1" d="M0 0.15L2.08 0.5L3.04 11.84C3.12 12.77 3.9 13.48 4.84 13.48L15.75 13.48C16.64 13.48 17.41 12.83 17.53 11.95L18.48 5.47C18.59 4.74 18.08 4.07 17.35 3.96C17.28 3.96 2.41 3.95 2.41 3.95" stroke="#363853" stroke-opacity="1.000000" stroke-width="1.500000" stroke-linejoin="round" stroke-linecap="round"/>
	<path id="Stroke 3" d="M10.37 7.42L13.14 7.42" stroke="#363853" stroke-opacity="1.000000" stroke-width="1.500000" stroke-linejoin="round" stroke-linecap="round"/>
	<path id="Stroke 5" d="M3.4 16.72C3.7 16.72 3.94 16.96 3.94 17.25C3.94 17.55 3.7 17.79 3.4 17.79C3.1 17.79 2.86 17.55 2.86 17.25C2.86 16.96 3.1 16.72 3.4 16.72Z" fill="#363853" fill-opacity="1.000000" fill-rule="evenodd"/>
	<path id="Stroke 5" d="M3.94 17.25C3.94 17.55 3.7 17.79 3.4 17.79C3.1 17.79 2.86 17.55 2.86 17.25C2.86 16.96 3.1 16.72 3.4 16.72C3.7 16.72 3.94 16.96 3.94 17.25Z" stroke="#363853" stroke-opacity="1.000000" stroke-width="1.500000" stroke-linejoin="round"/>
	<path id="Stroke 7" d="M14.68 16.72C14.98 16.72 15.22 16.96 15.22 17.25C15.22 17.55 14.98 17.79 14.68 17.79C14.38 17.79 14.14 17.55 14.14 17.25C14.14 16.96 14.38 16.72 14.68 16.72Z" fill="#363853" fill-opacity="1.000000" fill-rule="evenodd"/>
	<path id="Stroke 7" d="M15.22 17.25C15.22 17.55 14.98 17.79 14.68 17.79C14.38 17.79 14.14 17.55 14.14 17.25C14.14 16.96 14.38 16.72 14.68 16.72C14.98 16.72 15.22 16.96 15.22 17.25Z" stroke="#363853" stroke-opacity="1.000000" stroke-width="1.500000" stroke-linejoin="round"/>
</svg>