<svg width="19.000000" height="19.000000" viewBox="0 0 19 19" fill="none" xmlns="http://www.w3.org/2000/svg" xmlns:xlink="http://www.w3.org/1999/xlink">
  <defs/>
  <path id="ic-instagram" d="M8.98 5.76C7.19 5.76 5.73 7.22 5.73 9.01C5.73 10.8 7.19 12.26 8.98 12.26C10.77 12.26 12.23 10.8 12.23 9.01C12.23 7.22 10.77 5.76 8.98 5.76ZM18.73 9.01C18.73 7.66 18.74 6.33 18.67 4.98C18.59 3.42 18.24 2.04 17.09 0.9C15.95 -0.25 14.57 -0.6 13.01 -0.68C11.66 -0.75 10.33 -0.74 8.98 -0.74C7.64 -0.74 6.3 -0.75 4.96 -0.68C3.4 -0.6 2.01 -0.25 0.87 0.9C-0.27 2.04 -0.63 3.42 -0.7 4.98C-0.78 6.33 -0.77 7.66 -0.77 9.01C-0.77 10.35 -0.78 11.69 -0.7 13.03C-0.63 14.59 -0.27 15.98 0.87 17.12C2.01 18.26 3.4 18.62 4.96 18.69C6.3 18.77 7.64 18.76 8.98 18.76C10.33 18.76 11.66 18.77 13.01 18.69C14.57 18.62 15.95 18.26 17.09 17.12C18.24 15.98 18.59 14.59 18.67 13.03C18.75 11.69 18.73 10.35 18.73 9.01ZM8.98 14.01C6.21 14.01 3.98 11.78 3.98 9.01C3.98 6.24 6.21 4.01 8.98 4.01C11.75 4.01 13.98 6.24 13.98 9.01C13.98 11.78 11.75 14.01 8.98 14.01ZM14.19 4.97C13.54 4.97 13.02 4.45 13.02 3.8C13.02 3.15 13.54 2.63 14.19 2.63C14.83 2.63 15.36 3.15 15.36 3.8C15.36 3.95 15.33 4.11 15.27 4.25C15.21 4.39 15.12 4.52 15.01 4.63C14.91 4.74 14.78 4.82 14.63 4.88C14.49 4.94 14.34 4.97 14.19 4.97Z" fill="#363853" fill-opacity="1.000000" fill-rule="nonzero"/>
</svg>