<svg width="14.000000" height="12.000000" viewBox="0 0 14 12" fill="none" xmlns="http://www.w3.org/2000/svg" xmlns:xlink="http://www.w3.org/1999/xlink">
  <defs/>
  <path id="Vector" d="M8.12 -0.71C7.93 -0.52 7.82 -0.27 7.82 3.05e-5C7.82 0.26 7.93 0.51 8.12 0.7L11.41 4L1 4C0.73 4 0.48 4.11 0.29 4.29C0.1 4.48 0 4.74 0 5C0 5.27 0.1 5.52 0.29 5.71C0.48 5.9 0.73 6 1 6L11.41 6L8.12 9.29C8.02 9.38 7.94 9.49 7.89 9.61C7.84 9.73 7.81 9.87 7.81 10C7.81 10.13 7.83 10.26 7.89 10.39C7.94 10.51 8.01 10.62 8.1 10.71C8.2 10.81 8.31 10.88 8.43 10.93C8.55 10.98 8.69 11.01 8.82 11.01C8.95 11.01 9.08 10.98 9.21 10.93C9.33 10.87 9.44 10.8 9.53 10.7L13.12 7.12C13.39 6.84 13.62 6.51 13.77 6.14C13.92 5.78 13.99 5.39 13.99 5C13.99 4.6 13.92 4.21 13.77 3.85C13.62 3.48 13.39 3.15 13.12 2.87L9.53 -0.71C9.34 -0.9 9.09 -1 8.82 -1C8.56 -1 8.3 -0.9 8.12 -0.71Z" fill="#FFFFFF" fill-opacity="1.000000" fill-rule="nonzero"/>
</svg>