<svg width="44.000000" height="44.000000" viewBox="0 0 44 44" fill="none" xmlns="http://www.w3.org/2000/svg" xmlns:xlink="http://www.w3.org/1999/xlink">
  <defs>
    <clipPath id="clip0_228">
      <rect id="dish 1" width="44.000000" height="43.489380" transform="translate(0.000000 -0.126465)" fill="white" fill-opacity="0"/>
    </clipPath>
  </defs>
  <rect id="dish 1" width="44.000000" height="43.489380" transform="translate(0.000000 -0.126465)" fill="#FFFFFF" fill-opacity="0"/>
  <g clip-path="url(#clip0_228)">
    <path id="Vector" d="M31.15 14.53L30.68 12.99C30.08 11.25 28.17 10.32 26.41 10.91C25.42 11.25 24.64 12.02 24.31 12.99L23.84 14.53C23.44 15.82 23.36 17.18 23.59 18.51C23.81 19.63 24.53 20.59 25.55 21.13L25.02 32.78C24.95 33.43 25.16 34.08 25.61 34.56C26.56 35.59 28.18 35.66 29.23 34.72C29.28 34.67 29.34 34.62 29.39 34.56C29.82 34.09 30.04 33.46 29.98 32.82L29.45 21.12C30.46 20.59 31.18 19.63 31.4 18.51C31.63 17.18 31.55 15.82 31.15 14.53ZM29.95 18.26C29.79 19.06 29.21 19.72 28.43 19.99C28.13 20.1 27.94 20.39 27.95 20.7L28.51 32.94C28.54 33.18 28.46 33.42 28.29 33.6C27.85 34.03 27.14 34.03 26.7 33.6C26.52 33.4 26.45 33.15 26.48 32.89L27.04 20.7C27.05 20.39 26.86 20.1 26.56 19.99C25.78 19.72 25.2 19.06 25.04 18.26C24.84 17.16 24.91 16.02 25.24 14.95L25.71 13.42C26.08 12.44 27.17 11.95 28.15 12.31C28.68 12.5 29.09 12.9 29.28 13.42L29.75 14.95C30.08 16.02 30.15 17.16 29.95 18.26Z" fill="#363853" fill-opacity="1.000000" fill-rule="nonzero"/>
    <path id="Vector" d="M19.79 10.74C19.39 10.74 19.06 11.07 19.06 11.47L19.06 17.69L17.08 19.65C16.93 19.8 16.85 20 16.86 20.2L17.5 32.88C17.52 33.16 17.42 33.43 17.23 33.62C16.82 34.02 16.17 34.03 15.77 33.63C15.76 33.63 15.76 33.62 15.76 33.62C15.57 33.43 15.47 33.16 15.48 32.88L16.13 20.2C16.14 20 16.06 19.8 15.91 19.65L13.93 17.69L13.93 11.47C13.93 11.07 13.6 10.74 13.2 10.74C12.79 10.74 12.46 11.07 12.46 11.47L12.46 17.99C12.46 18.18 12.54 18.37 12.68 18.5L14.65 20.45L14.02 32.81C13.95 34.16 15.01 35.31 16.37 35.38C17.74 35.44 18.9 34.4 18.97 33.05C18.97 32.97 18.97 32.89 18.97 32.81L18.34 20.45L20.31 18.5C20.45 18.37 20.53 18.18 20.53 17.99L20.53 11.47C20.53 11.07 20.2 10.74 19.79 10.74Z" fill="#363853" fill-opacity="1.000000" fill-rule="nonzero"/>
    <path id="Vector" d="M15.4 10.74C14.99 10.74 14.66 11.07 14.66 11.47L14.66 17.26C14.66 17.66 14.99 17.99 15.4 17.99C15.8 17.99 16.13 17.66 16.13 17.26L16.13 11.47C16.13 11.07 15.8 10.74 15.4 10.74Z" fill="#363853" fill-opacity="1.000000" fill-rule="nonzero"/>
    <path id="Vector" d="M17.6 10.74C17.19 10.74 16.86 11.07 16.86 11.47L16.86 17.26C16.86 17.66 17.19 17.99 17.6 17.99C18 17.99 18.33 17.66 18.33 17.26L18.33 11.47C18.33 11.07 18 10.74 17.6 10.74Z" fill="#363853" fill-opacity="1.000000" fill-rule="nonzero"/>
    <path id="Vector" d="M22 -0.13C9.84 -0.13 0 9.6 0 21.61C0 33.62 9.84 43.36 22 43.36C34.15 43.36 44 33.62 44 21.61C43.98 9.61 34.14 -0.12 22 -0.13ZM22 41.91C10.65 41.91 1.46 32.82 1.46 21.61C1.46 10.4 10.65 1.32 22 1.32C33.34 1.32 42.53 10.4 42.53 21.61C42.52 32.82 33.33 41.9 22 41.91Z" fill="#363853" fill-opacity="1.000000" fill-rule="nonzero"/>
    <path id="Vector" d="M24.38 35.22C24.34 34.82 23.98 34.53 23.57 34.57C23.56 34.57 23.56 34.57 23.55 34.57L23.55 34.57C22.52 34.69 21.47 34.69 20.44 34.57C20.04 34.52 19.67 34.81 19.63 35.21C19.58 35.6 19.87 35.97 20.27 36.01C21.42 36.14 22.57 36.14 23.72 36.01C24.12 35.97 24.41 35.62 24.38 35.22Z" fill="#363853" fill-opacity="1.000000" fill-rule="nonzero"/>
    <path id="Vector" d="M33.22 12.27C32.95 11.97 32.49 11.93 32.18 12.18C32.18 12.18 32.18 12.19 32.18 12.19C31.87 12.44 31.83 12.9 32.09 13.21C36.51 18.4 36.17 26.07 31.31 30.85C31.03 31.14 31.03 31.6 31.31 31.88C31.6 32.16 32.06 32.16 32.35 31.88C37.75 26.56 38.13 18.04 33.22 12.27Z" fill="#363853" fill-opacity="1.000000" fill-rule="nonzero"/>
    <path id="Vector" d="M17.08 9.45C17.08 9.45 17.08 9.45 17.08 9.45C17.08 9.45 17.08 9.45 17.08 9.45L17.08 9.45Z" fill="#363853" fill-opacity="1.000000" fill-rule="nonzero"/>
    <path id="Vector" d="M25.45 7.52C22.59 6.84 19.58 7.03 16.82 8.05C16.44 8.19 16.25 8.6 16.39 8.98C16.5 9.26 16.77 9.45 17.08 9.45C17.17 9.45 17.25 9.43 17.34 9.4C19.82 8.48 22.53 8.32 25.11 8.93C25.5 9.03 25.9 8.79 25.99 8.4C26.09 8.01 25.85 7.62 25.45 7.52Z" fill="#363853" fill-opacity="1.000000" fill-rule="nonzero"/>
    <path id="Vector" d="M12.64 30.82C10.17 28.38 8.79 25.07 8.79 21.61C8.79 18.85 9.67 16.17 11.32 13.94C11.56 13.62 11.5 13.16 11.17 12.92C10.85 12.68 10.39 12.75 10.15 13.07C10.14 13.07 10.14 13.08 10.13 13.09C5.89 18.85 6.52 26.8 11.61 31.84C11.89 32.13 12.36 32.13 12.64 31.85C12.93 31.56 12.93 31.1 12.64 30.82Z" fill="#363853" fill-opacity="1.000000" fill-rule="nonzero"/>
  </g>
</svg>