<svg width="20.000000" height="16.000000" viewBox="0 0 20 16" fill="none" xmlns="http://www.w3.org/2000/svg" xmlns:xlink="http://www.w3.org/1999/xlink">
  <defs/>
  <path id="ic-twitter" d="M19.76 1.27C19 1.59 18.18 1.83 17.34 1.92C18.21 1.39 18.87 0.57 19.19 -0.4C18.36 0.09 17.46 0.43 16.52 0.61C16.12 0.19 15.65 -0.14 15.12 -0.37C14.59 -0.6 14.02 -0.72 13.44 -0.72C11.11 -0.72 9.24 1.17 9.24 3.49C9.24 3.82 9.28 4.14 9.34 4.46C5.85 4.28 2.74 2.61 0.67 0.05C0.29 0.7 0.09 1.43 0.1 2.18C0.1 3.64 0.84 4.93 1.97 5.68C1.3 5.66 0.65 5.47 0.07 5.15L0.07 5.2C0.07 7.25 1.51 8.94 3.44 9.33C3.08 9.42 2.71 9.47 2.33 9.47C2.06 9.47 1.8 9.45 1.54 9.41C2.07 11.08 3.62 12.29 5.47 12.33C4.02 13.46 2.21 14.12 0.25 14.12C-0.1 14.12 -0.43 14.11 -0.77 14.07C1.1 15.27 3.31 15.96 5.69 15.96C13.43 15.96 17.66 9.55 17.66 3.99C17.66 3.81 17.66 3.62 17.65 3.44C18.47 2.84 19.19 2.1 19.76 1.27Z" fill="#363853" fill-opacity="1.000000" fill-rule="nonzero"/>
</svg>