<svg width="22.000000" height="22.000000" viewBox="0 0 22 22" fill="none" xmlns="http://www.w3.org/2000/svg" xmlns:xlink="http://www.w3.org/1999/xlink">
  <defs>
    <clipPath id="clip0_431">
      <rect id="timer 1" width="22.000000" height="22.000000" fill="white" fill-opacity="0"/>
    </clipPath>
  </defs>
  <g opacity="0.900000">
    <rect id="timer 1" width="22.000000" height="22.000000" fill="#FFFFFF" fill-opacity="0"/>
    <g clip-path="url(#clip0_431)">
      <path id="Vector" d="M11.57 2.54L11.57 1.58C11.57 1.41 11.51 1.26 11.39 1.14C11.28 1.03 11.12 0.97 10.96 0.97C10.8 0.97 10.64 1.03 10.53 1.14C10.41 1.26 10.35 1.41 10.35 1.58L10.35 2.54C5.55 2.87 1.74 6.88 1.74 11.77C1.74 16.87 5.89 21.02 11 21.02C16.1 21.02 20.25 16.87 20.25 11.77C20.25 6.86 16.41 2.83 11.57 2.54ZM11 19.8C6.57 19.8 2.96 16.2 2.96 11.77C2.96 7.34 6.57 3.74 11 3.74C15.42 3.74 19.03 7.34 19.03 11.77C19.03 16.2 15.42 19.8 11 19.8Z" fill="#363853" fill-opacity="1.000000" fill-rule="nonzero"/>
      <path id="Vector" d="M7.86 17.32C5.86 16.19 4.62 14.06 4.62 11.77C4.62 11.6 4.49 11.46 4.32 11.46C4.15 11.46 4.01 11.6 4.01 11.77C4.01 14.28 5.37 16.61 7.56 17.85C7.63 17.89 7.71 17.9 7.79 17.88C7.87 17.86 7.93 17.8 7.97 17.73C8.01 17.66 8.02 17.58 8 17.5C7.98 17.42 7.93 17.36 7.86 17.32Z" fill="#363853" fill-opacity="1.000000" fill-rule="nonzero"/>
      <path id="Vector" d="M9.52 18.15C9.41 18.12 9.29 18.09 9.17 18.05C9.1 18.03 9.01 18.04 8.94 18.08C8.87 18.11 8.82 18.18 8.79 18.25C8.77 18.33 8.78 18.41 8.81 18.48C8.85 18.55 8.91 18.61 8.99 18.63C9.11 18.68 9.24 18.71 9.37 18.75C9.45 18.77 9.53 18.75 9.6 18.71C9.67 18.67 9.72 18.6 9.74 18.53C9.75 18.49 9.76 18.45 9.75 18.41C9.74 18.37 9.73 18.33 9.71 18.3C9.69 18.26 9.66 18.23 9.63 18.21C9.6 18.18 9.56 18.16 9.52 18.15Z" fill="#363853" fill-opacity="1.000000" fill-rule="nonzero"/>
      <path id="Vector" d="M18.88 5.72C19 5.84 19.15 5.9 19.31 5.9C19.47 5.9 19.63 5.84 19.74 5.72C19.86 5.61 19.92 5.45 19.92 5.29C19.92 5.13 19.86 4.97 19.74 4.86L18.16 3.27C18.1 3.22 18.03 3.17 17.96 3.14C17.88 3.11 17.8 3.1 17.72 3.1C17.64 3.1 17.56 3.11 17.49 3.14C17.42 3.17 17.35 3.22 17.29 3.28C17.18 3.39 17.11 3.55 17.11 3.71C17.11 3.87 17.18 4.03 17.29 4.14L18.88 5.72Z" fill="#363853" fill-opacity="1.000000" fill-rule="nonzero"/>
      <path id="Vector" d="M11.57 11.66L11.57 6.77C11.57 6.61 11.51 6.45 11.39 6.34C11.28 6.22 11.12 6.16 10.96 6.16C10.8 6.16 10.64 6.22 10.53 6.34C10.41 6.45 10.35 6.61 10.35 6.77L10.35 11.92C10.35 12.09 10.44 12.25 10.56 12.36L12.35 14.04C12.46 14.15 12.61 14.2 12.77 14.2C12.85 14.2 12.93 14.19 13 14.15C13.08 14.12 13.15 14.07 13.2 14.01C13.43 13.76 13.41 13.38 13.17 13.15L11.57 11.66Z" fill="#363853" fill-opacity="1.000000" fill-rule="nonzero"/>
    </g>
  </g>
</svg>