<svg width="16.000000" height="20.000000" viewBox="0 0 16 20" fill="none" xmlns="http://www.w3.org/2000/svg" xmlns:xlink="http://www.w3.org/1999/xlink">
  <defs/>
  <path id="ic-pinterset" d="M-0.72 6.59C-0.72 5.71 -0.56 4.87 -0.25 4.09C0.04 3.33 0.47 2.63 1.02 2.03C1.58 1.44 2.21 0.93 2.9 0.52C3.61 0.09 4.38 -0.24 5.18 -0.45C6 -0.66 6.83 -0.77 7.68 -0.77C8.97 -0.77 10.18 -0.49 11.3 0.05C12.41 0.59 13.35 1.42 14.03 2.44C14.73 3.49 15.08 4.67 15.08 5.98C15.08 6.77 15 7.55 14.84 8.3C14.69 9.05 14.44 9.79 14.11 10.48C13.79 11.15 13.37 11.78 12.87 12.33C12.37 12.87 11.76 13.3 11.08 13.6C10.35 13.92 9.55 14.08 8.75 14.07C8.19 14.07 7.64 13.94 7.09 13.68C6.54 13.42 6.14 13.06 5.91 12.59C5.82 12.91 5.71 13.38 5.56 13.98C5.41 14.59 5.31 14.98 5.27 15.15C5.22 15.33 5.14 15.62 5.02 16.03C4.93 16.33 4.83 16.62 4.7 16.91L4.3 17.68C4.13 18.01 3.94 18.32 3.74 18.63C3.53 18.93 3.27 19.29 2.97 19.7L2.8 19.76L2.69 19.63C2.56 18.34 2.5 17.57 2.5 17.31C2.5 16.56 2.59 15.71 2.77 14.77C2.94 13.83 3.22 12.64 3.59 11.22C3.96 9.8 4.17 8.96 4.23 8.72C3.97 8.18 3.84 7.49 3.84 6.63C3.84 5.95 4.05 5.31 4.48 4.71C4.91 4.11 5.45 3.81 6.11 3.81C6.61 3.81 7 3.97 7.28 4.31C7.56 4.64 7.7 5.06 7.7 5.57C7.7 6.11 7.52 6.9 7.15 7.93C6.79 8.96 6.61 9.72 6.61 10.23C6.61 10.75 6.79 11.18 7.16 11.52C7.53 11.86 8.01 12.05 8.51 12.03C8.96 12.03 9.38 11.93 9.77 11.73C10.15 11.53 10.48 11.24 10.74 10.89C11.29 10.13 11.68 9.27 11.9 8.35C12.01 7.87 12.09 7.41 12.14 6.98C12.2 6.55 12.22 6.14 12.22 5.75C12.22 4.33 11.77 3.22 10.87 2.43C9.97 1.64 8.8 1.24 7.35 1.24C5.71 1.24 4.33 1.77 3.23 2.84C2.13 3.9 1.58 5.25 1.58 6.89C1.58 7.25 1.63 7.6 1.73 7.94C1.84 8.28 1.95 8.55 2.07 8.74C2.19 8.94 2.3 9.13 2.4 9.31C2.5 9.48 2.55 9.61 2.55 9.68C2.55 9.91 2.49 10.21 2.37 10.58C2.25 10.95 2.1 11.14 1.92 11.14C1.9 11.14 1.83 11.13 1.71 11.1C1.28 10.97 0.89 10.73 0.59 10.41C0.26 10.07 0.01 9.68 -0.16 9.24C-0.34 8.81 -0.47 8.37 -0.56 7.91C-0.67 7.48 -0.72 7.04 -0.72 6.59Z" fill="#363853" fill-opacity="1.000000" fill-rule="nonzero"/>
</svg>