<svg width="62.000000" height="63.000000" viewBox="0 0 62 63" fill="none" xmlns="http://www.w3.org/2000/svg" xmlns:xlink="http://www.w3.org/1999/xlink">
	<defs>
		<clipPath id="clip0_172">
			<rect width="44.000000" height="44.000000" transform="matrix(0.707107 -0.707107 -0.707107 -0.707107 30.1128 62.2253)" fill="white" fill-opacity="0"/>
		</clipPath>
	</defs>
	<rect width="44.000000" height="44.000000" transform="matrix(0.707107 -0.707107 -0.707107 -0.707107 30.1128 62.2253)" fill="#FFFFFF" fill-opacity="0"/>
	<g clip-path="url(#clip0_172)">
		<path d="M60.87 31.11C60.86 31.44 60.67 31.74 60.37 31.88L26.13 48.12C25.79 49.54 24.81 50.77 23.37 51.37C20.97 52.36 18.22 51.22 17.22 48.83C14.88 43.18 13.7 37.22 13.7 31.11C13.7 24.99 14.88 19.03 17.22 13.39C17.47 12.8 17.81 12.29 18.24 11.87C19.54 10.56 21.56 10.09 23.37 10.84C24.58 11.35 25.47 12.31 25.93 13.44L60.38 30.34C60.68 30.48 60.87 30.78 60.87 31.11ZM30.03 44.37L33.66 42.65C33.64 42 33.33 41.39 32.8 40.99C32.34 40.63 31.76 40.48 31.18 40.55C30.6 40.63 30.09 40.93 29.73 41.39C29.37 41.85 29.22 42.43 29.3 43.01C29.37 43.54 29.63 44.02 30.03 44.37ZM22.71 12.43C21.19 11.8 19.44 12.52 18.81 14.04C14.25 25.05 14.25 37.17 18.81 48.17C19.12 48.91 19.69 49.48 20.43 49.78C21.16 50.09 21.97 50.09 22.71 49.78C23.44 49.48 24.02 48.91 24.32 48.17C24.63 47.43 24.63 46.62 24.32 45.89C22.37 41.18 21.38 36.21 21.38 31.11C21.38 26.01 22.37 21.04 24.32 16.33C24.95 14.81 24.23 13.06 22.71 12.43ZM46.53 25.46C46.48 25.51 46.43 25.57 46.38 25.64C46.02 26.1 45.87 26.67 45.95 27.25C46.02 27.83 46.32 28.35 46.78 28.71C47.74 29.44 49.12 29.26 49.86 28.3C50.08 28.01 50.23 27.66 50.28 27.3L46.53 25.46ZM51.87 28.07C51.73 28.53 51.51 28.96 51.22 29.35C49.91 31.06 47.45 31.38 45.74 30.07C44.91 29.43 44.38 28.51 44.24 27.48C44.11 26.48 44.36 25.49 44.95 24.68L40.21 22.36L39.89 24.81C39.82 25.28 39.39 25.61 38.92 25.55C38.45 25.49 38.12 25.06 38.18 24.59L38.58 21.56L26.25 15.52C26.22 16.01 26.11 16.5 25.91 16.98C22.14 26.09 22.14 36.12 25.91 45.23C26.04 45.55 26.13 45.87 26.19 46.19L28.4 45.15C27.97 44.6 27.69 43.94 27.59 43.23C27.46 42.2 27.73 41.17 28.37 40.34C28.47 40.21 28.59 40.08 28.71 39.95C29.31 39.35 30.1 38.96 30.96 38.85C31.99 38.71 33.02 38.99 33.85 39.62C34.59 40.19 35.09 41 35.28 41.88L45.53 37.02L45.13 36.04C44.99 35.71 45.07 35.34 45.31 35.11C45.39 35.03 45.48 34.97 45.59 34.92C46.03 34.74 46.53 34.95 46.71 35.39L47.09 36.28L58.03 31.09L51.87 28.07Z" fill="#363853" fill-opacity="1.000000" fill-rule="nonzero"/>
		<path d="M20.37 39.36C20.37 39.36 20.37 39.37 20.37 39.38C20.47 39.84 20.16 40.29 19.7 40.39C19.23 40.48 18.78 40.18 18.69 39.72C18.63 39.42 18.72 39.13 18.92 38.93C19.03 38.82 19.18 38.73 19.35 38.7C19.81 38.6 20.27 38.89 20.37 39.36Z" fill="#363853" fill-opacity="1.000000" fill-rule="nonzero"/>
		<path d="M20.95 41.79C21.4 43.42 21.95 45.04 22.6 46.6C22.78 47.04 22.57 47.54 22.14 47.72C21.7 47.91 21.2 47.7 21.01 47.26C20.34 45.63 19.76 43.94 19.3 42.24C19.21 41.93 19.31 41.62 19.52 41.41C19.62 41.31 19.75 41.23 19.9 41.19C20.36 41.06 20.83 41.33 20.95 41.79Z" fill="#363853" fill-opacity="1.000000" fill-rule="nonzero"/>
		<path d="M41.35 35.43C41.24 35.56 41.13 35.69 41.01 35.81C39.63 37.2 37.42 37.34 35.87 36.15C34.16 34.84 33.83 32.38 35.14 30.67C35.25 30.53 35.36 30.4 35.48 30.28C36.86 28.9 39.07 28.76 40.62 29.95C42.33 31.26 42.66 33.72 41.35 35.43ZM39.58 31.31C38.71 30.64 37.47 30.72 36.7 31.5C36.63 31.56 36.57 31.64 36.51 31.71C35.77 32.67 35.95 34.05 36.91 34.79C37.78 35.45 39.02 35.37 39.79 34.6C39.86 34.53 39.92 34.46 39.98 34.38C40.72 33.42 40.54 32.04 39.58 31.31Z" fill="#363853" fill-opacity="1.000000" fill-rule="nonzero"/>
		<path d="M33.63 28.03C33.53 28.16 33.41 28.29 33.29 28.41C31.91 29.79 29.7 29.94 28.15 28.75C27.32 28.11 26.79 27.19 26.65 26.16C26.52 25.12 26.79 24.1 27.43 23.27C27.53 23.13 27.65 23 27.77 22.88C29.15 21.5 31.36 21.36 32.91 22.55C34.62 23.86 34.94 26.32 33.63 28.03ZM31.86 23.91C30.99 23.24 29.75 23.32 28.98 24.1C28.91 24.16 28.85 24.24 28.79 24.31C28.43 24.78 28.28 25.35 28.36 25.93C28.43 26.51 28.73 27.03 29.19 27.38C30.06 28.05 31.3 27.97 32.07 27.2C32.14 27.13 32.21 27.06 32.27 26.98C33 26.02 32.82 24.64 31.86 23.91Z" fill="#363853" fill-opacity="1.000000" fill-rule="nonzero"/>
		<path d="M32.14 34.55L30.52 36.67C30.23 37.04 29.69 37.11 29.31 36.82C28.94 36.54 28.86 36 29.15 35.62L30.78 33.51C30.8 33.48 30.82 33.45 30.85 33.42C31.15 33.12 31.63 33.08 31.98 33.35C32.36 33.64 32.43 34.18 32.14 34.55Z" fill="#363853" fill-opacity="1.000000" fill-rule="nonzero"/>
		<path d="M26.71 31.01L27.8 32.43C28.08 32.81 28.01 33.35 27.64 33.64C27.26 33.93 26.72 33.86 26.43 33.48L25.34 32.06C25.08 31.71 25.12 31.23 25.42 30.93C25.44 30.9 25.47 30.88 25.5 30.86C25.88 30.57 26.42 30.64 26.71 31.01Z" fill="#363853" fill-opacity="1.000000" fill-rule="nonzero"/>
	</g>
</svg>