<svg width="19.000000" height="15.000000" viewBox="0 0 19 15" fill="none" xmlns="http://www.w3.org/2000/svg" xmlns:xlink="http://www.w3.org/1999/xlink">
  <defs/>
  <path id="Fill 1" d="M9.66 -0.28L11.75 3.4C11.9 3.67 12.19 3.85 12.53 3.9L17.22 4.5C17.5 4.53 17.74 4.66 17.91 4.85C18.08 5.04 18.15 5.28 18.11 5.52C18.08 5.72 17.97 5.9 17.81 6.04L14.41 8.94C14.16 9.14 14.05 9.44 14.11 9.73L14.95 13.8C15.04 14.29 14.66 14.75 14.11 14.85C13.88 14.88 13.65 14.84 13.44 14.75L9.26 12.84C8.95 12.7 8.58 12.7 8.27 12.84L4.09 14.75C3.57 14.99 2.94 14.83 2.65 14.38C2.55 14.21 2.51 14 2.54 13.81L3.38 9.74C3.44 9.45 3.33 9.15 3.08 8.94L-0.32 6.05C-0.72 5.71 -0.74 5.14 -0.35 4.79C-0.34 4.78 -0.33 4.77 -0.32 4.77C-0.16 4.62 0.05 4.53 0.28 4.51L4.97 3.91C5.31 3.86 5.6 3.68 5.76 3.41L7.77 -0.28C7.95 -0.6 8.32 -0.8 8.72 -0.79L8.85 -0.79C9.2 -0.75 9.5 -0.56 9.66 -0.28Z" fill="#FAC412" fill-opacity="0.400000" fill-rule="nonzero"/>
</svg>