<svg width="45.000000" height="44.000000" viewBox="0 0 45 44" fill="none" xmlns="http://www.w3.org/2000/svg" xmlns:xlink="http://www.w3.org/1999/xlink">
	<path id="Vector" d="M41.79 6.59L40.33 6.59L40.33 5.13C40.33 3.91 39.34 2.93 38.13 2.93L36.38 2.93L35.32 0.81C35.07 0.31 34.56 -0.01 34.01 -0.01L32.99 -0.01C32.18 -0.01 31.53 0.65 31.53 1.46L31.53 2.93L23.46 2.93C22.25 2.93 21.26 3.91 21.26 5.13L21.26 6.59L19.79 6.59C18.58 6.59 17.59 7.58 17.59 8.79L17.59 10.26C17.59 11.07 18.25 11.73 19.06 11.73L19.14 11.73L20 19.31L16.46 18.47C16.29 18.2 16.1 17.93 15.89 17.66L14.64 12.3C14.56 11.96 14.27 11.73 13.93 11.73L9.71 11.73C7.73 9.98 5.38 9.18 3.6 9.71L2.53 8.53C2.12 8.09 1.48 7.94 0.92 8.17C0.36 8.38 -0.01 8.92 -5.35e-5 9.52L-5.35e-5 41.81C0 43.02 0.97 43.99 2.18 43.99L38.13 43.99C38.5 43.99 38.81 43.71 38.86 43.34L42.45 11.73L42.53 11.73C43.34 11.73 44 11.07 44 10.26L44 8.79C43.99 7.58 43.01 6.59 41.79 6.59ZM32.99 1.46L34.01 1.46L34.74 2.93L32.99 2.93L32.99 1.46ZM22.73 5.13C22.73 4.72 23.06 4.39 23.46 4.39L38.13 4.39C38.53 4.39 38.86 4.72 38.86 5.13L38.86 6.59L22.73 6.59L22.73 5.13ZM20.67 20.97L20.72 20.98L21.31 21.12L21.71 25.28C20.56 24.46 19.18 24.03 17.77 24.04C18.04 22.74 17.9 21.4 17.36 20.19L20.67 20.97ZM22.11 27.45L22.12 27.46C22.38 27.71 22.64 27.97 22.87 28.24C23.75 29.22 24.39 30.37 24.75 31.63C24.87 32.07 24.94 32.52 24.94 32.97L18.09 25.5C19.61 25.67 21.03 26.36 22.11 27.45ZM14.38 18.13L14.38 18.13C15.96 19.95 16.7 22.14 16.35 23.6L8.89 15.47C10.39 15.13 12.68 16.19 14.38 18.13ZM13.34 13.2L13.93 15.69C13.34 15.23 12.7 14.84 12.02 14.54C11.74 14.07 11.43 13.62 11.09 13.2L13.34 13.2ZM9.66 13.74L9.66 13.74C9.72 13.81 9.77 13.89 9.83 13.96C9.14 13.9 8.45 14.01 7.82 14.3L4.8 11.01C6.28 11.03 8.2 12.07 9.66 13.74ZM30.73 42.1C30.62 42.36 30.36 42.53 30.08 42.53L23.46 42.53L2.18 42.53C1.78 42.53 1.46 42.21 1.46 41.81L1.45 9.53L16.17 25.58L16.17 25.58L24.81 35L24.82 35.02L29.56 40.19C29.58 40.21 29.6 40.23 29.62 40.25L30.6 41.32C30.79 41.53 30.85 41.84 30.73 42.1ZM26.19 34.34C26.33 33.9 26.4 33.45 26.39 32.99C26.78 33.31 27.14 33.67 27.47 34.05C27.88 34.52 28.24 35.02 28.55 35.56C28.98 36.28 29.29 37.07 29.45 37.89L26.19 34.34ZM37.47 42.53L32.13 42.53C32.41 41.77 32.23 40.92 31.68 40.33L30.94 39.52C31.09 38.29 30.89 37.05 30.37 35.93L38.22 35.93L37.47 42.53ZM38.39 34.46L29.59 34.46C29.29 33.98 28.95 33.52 28.58 33.09C27.86 32.25 27.01 31.53 26.07 30.95C25.64 29.59 24.93 28.34 23.98 27.27C23.76 27.03 23.54 26.79 23.31 26.57L22.73 20.46C22.7 20.15 22.47 19.89 22.17 19.81L21.52 19.66L21.36 18.33L40.22 18.33L38.39 34.46ZM40.39 16.86L21.2 16.86L20.62 11.73L40.97 11.73L40.39 16.86ZM42.53 10.26L19.06 10.26L19.06 8.79C19.06 8.39 19.39 8.06 19.79 8.06L41.79 8.06C42.2 8.06 42.53 8.39 42.53 8.79L42.53 10.26Z" fill="#363853" fill-opacity="1.000000" fill-rule="nonzero"/>
	<path id="Vector" d="M31.1 32.26C31.14 32.26 31.18 32.26 31.22 32.25C31.23 32.25 31.24 32.26 31.25 32.26C31.29 32.26 31.33 32.25 31.36 32.25C32.51 32.17 33.57 31.6 34.26 30.68C35.18 29.38 35.45 27.73 34.97 26.2C34.87 25.82 34.78 25.45 34.69 25.09C34.12 22.8 33.57 20.64 31.25 20.54C31.23 20.54 31.21 20.53 31.19 20.53C31.16 20.53 31.13 20.53 31.1 20.53C28.5 20.53 26.39 23.16 26.39 26.4C26.39 29.63 28.5 32.26 31.1 32.26ZM31.66 22.11C32.42 22.4 32.76 23.4 33.27 25.45C33.36 25.81 33.45 26.2 33.56 26.59C33.91 27.67 33.74 28.85 33.1 29.79C32.86 30.09 32.56 30.34 32.22 30.52C32.2 29.26 31.95 28.01 31.49 26.84C31.41 26.61 31.34 26.39 31.28 26.18C30.85 24.79 31.35 22.99 31.66 22.11ZM30.09 22.22C29.61 23.63 29.54 25.15 29.88 26.61C29.94 26.83 30.02 27.06 30.1 27.29C30.46 28.41 30.9 29.77 30.72 30.76C29.11 30.51 27.86 28.65 27.86 26.4C27.86 24.45 28.8 22.8 30.09 22.22Z" fill="#363853" fill-opacity="1.000000" fill-rule="nonzero"/>
	<path id="Vector" d="M3.88 38.56L3.36 39.08C3.17 39.26 3.09 39.53 3.16 39.79C3.23 40.05 3.43 40.25 3.68 40.31C3.94 40.38 4.21 40.3 4.39 40.11L4.91 39.59C5.19 39.31 5.19 38.85 4.9 38.57C4.62 38.28 4.16 38.28 3.88 38.56Z" fill="#363853" fill-opacity="1.000000" fill-rule="nonzero"/>
	<path id="Vector" d="M10.89 33.62C11.17 33.33 11.17 32.87 10.89 32.58C10.6 32.3 10.14 32.3 9.85 32.58L9.33 33.1C9.15 33.29 9.07 33.56 9.14 33.81C9.21 34.06 9.41 34.26 9.66 34.33C9.91 34.4 10.18 34.33 10.37 34.14L10.89 33.62Z" fill="#363853" fill-opacity="1.000000" fill-rule="nonzero"/>
	<path id="Vector" d="M4.39 31.74L3.88 32.26C3.69 32.45 3.61 32.72 3.68 32.97C3.74 33.23 3.94 33.43 4.2 33.5C4.46 33.57 4.73 33.49 4.91 33.3L5.43 32.78C5.71 32.49 5.71 32.04 5.42 31.75C5.14 31.47 4.68 31.47 4.39 31.74Z" fill="#363853" fill-opacity="1.000000" fill-rule="nonzero"/>
	<path id="Vector" d="M4.39 26.61L3.88 27.13C3.69 27.31 3.61 27.59 3.68 27.84C3.74 28.1 3.94 28.3 4.2 28.37C4.46 28.43 4.73 28.36 4.91 28.17L5.43 27.65C5.71 27.36 5.71 26.9 5.42 26.62C5.14 26.34 4.68 26.33 4.39 26.61Z" fill="#363853" fill-opacity="1.000000" fill-rule="nonzero"/>
	<path id="Vector" d="M11 38.56L10.48 39.08C10.29 39.26 10.21 39.53 10.28 39.79C10.34 40.05 10.54 40.25 10.8 40.31C11.06 40.38 11.33 40.3 11.51 40.11L12.03 39.59C12.31 39.31 12.31 38.85 12.02 38.57C11.74 38.28 11.28 38.28 11 38.56Z" fill="#363853" fill-opacity="1.000000" fill-rule="nonzero"/>
	<path id="Vector" d="M16.34 38.56L15.82 39.08C15.63 39.26 15.56 39.53 15.62 39.79C15.69 40.05 15.89 40.25 16.15 40.31C16.4 40.38 16.68 40.3 16.86 40.11L17.38 39.59C17.66 39.31 17.65 38.85 17.37 38.57C17.09 38.28 16.63 38.28 16.34 38.56Z" fill="#363853" fill-opacity="1.000000" fill-rule="nonzero"/>
</svg>